<svg width="32" height="32" viewBox="0 0 32 32" fill="none" xmlns="http://www.w3.org/2000/svg">
<path d="M3.1223 28.808L0.0563112 11.4196C0.0267064 11.2518 0.00825172 11.0822 0.00106815 10.9119C-0.0444968 8.94052 1.37257 7.23762 3.32117 6.92212L9.23771 5.87915L9.0775 28.808H3.1223Z" fill="#35495E"/>
<path d="M25.8935 28.0464C25.7909 28.4719 25.4463 28.7966 25.0151 28.8741L7.60249 31.9424C6.50497 32.1338 5.37809 31.8438 4.50976 31.1465C3.64143 30.4492 3.11575 29.4121 3.06704 28.3002C3.02353 26.4154 4.32259 24.7638 6.16617 24.3601L11.0441 25.7287H11.0386L6.64679 26.5068C6.15697 26.5928 5.73156 26.8936 5.48759 27.3265C5.24362 27.7594 5.20679 28.2788 5.38725 28.7417C5.69971 29.4873 6.4933 29.9113 7.28761 29.7571L20.5957 27.4118L25.8935 28.0464Z" fill="#2C3E50"/>
<path d="M11.0386 25.7288L6.64679 26.5069C6.15698 26.5929 5.73156 26.8937 5.48759 27.3266C5.24362 27.7595 5.20679 28.2789 5.38725 28.7418C5.69972 29.4874 6.4933 29.9114 7.28761 29.7572L20.5957 27.4119L11.0386 25.7288Z" fill="#F9EAB0"/>
<path d="M7.04785 18.3015L10.1177 0.910838C10.2276 0.313061 10.7978 -0.0856757 11.3977 0.0157569L28.6761 3.05914C30.6261 3.37489 32.0442 5.07887 31.9989 7.05169C31.9914 7.22119 31.973 7.39004 31.9437 7.55717L28.8738 24.9478L7.04785 18.3015Z" fill="#E64C3C"/>
<path d="M25.0638 5.7763C25.0314 5.77628 24.999 5.77351 24.9671 5.76802L12.454 3.56398C12.1716 3.49441 11.9916 3.21804 12.0423 2.93196C12.093 2.64588 12.3571 2.44808 12.6462 2.47962L25.1588 4.6809C25.441 4.73028 25.6386 4.98698 25.6138 5.2721C25.5891 5.55722 25.3503 5.77614 25.0638 5.7763Z" fill="#3F5C6C"/>
<path d="M22.4077 8.10843C22.3752 8.10847 22.3429 8.10552 22.311 8.0996L14.1505 6.66427C13.8569 6.60479 13.6642 6.32238 13.7162 6.02766C13.7682 5.73295 14.0459 5.53334 14.3422 5.5777L22.5032 7.01248C22.7871 7.06039 22.9865 7.31801 22.9615 7.60449C22.9365 7.89097 22.6955 8.11026 22.4077 8.10843Z" fill="#3F5C6C"/>
<path d="M23.561 10.5731L12.134 8.55671C11.8335 8.50368 11.5468 8.70405 11.4937 9.00425L10.5325 14.4399C10.4794 14.7401 10.68 15.0264 10.9805 15.0794L22.4075 17.0959C22.7081 17.1489 22.9947 16.9485 23.0478 16.6483L24.009 11.2127C24.0621 10.9125 23.8615 10.6262 23.561 10.5731Z" fill="#ECF0F1"/>
<path d="M31.9978 7.04883C31.9912 7.21914 31.9728 7.38878 31.9426 7.55652L28.8711 24.9449L24.6118 23.6481L27.0812 9.66454L27.6668 6.36455L28.2634 2.9873L28.6777 3.05904C30.6254 3.3761 32.0417 5.07803 31.9978 7.04883Z" fill="#C03A2B"/>
<path d="M25.6062 20.4476L8.32621 17.4069C8.26235 17.3959 8.19766 17.3904 8.13286 17.3904C7.56028 17.3918 7.08369 17.83 7.03483 18.3999C6.98597 18.9698 7.38104 19.4825 7.94503 19.5812L25.3521 22.6439C25.8415 22.7324 26.2656 23.0349 26.5083 23.4685C26.751 23.9022 26.7869 24.4215 26.6061 24.8843C26.2954 25.6283 25.503 26.0506 24.7113 25.8942L7.3705 22.8425C7.30664 22.8316 7.24196 22.826 7.17715 22.826C6.60352 22.8246 6.12422 23.2619 6.07384 23.8327C6.02346 24.4035 6.41877 24.9179 6.9838 25.0168L24.3964 28.0795C25.4931 28.2715 26.6195 27.9825 27.4879 27.2863C28.3562 26.5901 28.8823 25.554 28.9319 24.4429C28.9752 22.4692 27.5567 20.7651 25.6062 20.4476Z" fill="#802F34"/>
<path d="M26.6061 24.8842C26.2953 25.6282 25.5029 26.0505 24.7113 25.8941L7.37048 22.8424L7.94501 19.5811L25.3521 22.6438C25.8415 22.7323 26.2656 23.0348 26.5083 23.4684C26.751 23.9021 26.7869 24.4214 26.6061 24.8842Z" fill="#F9EAB0"/>
</svg>
