<svg width="126" height="126" viewBox="0 0 126 126" fill="none" xmlns="http://www.w3.org/2000/svg">
<path d="M124.971 114.564L115.542 66.0805C115.265 64.5891 113.954 63.5021 112.441 63.5021H107.323L106.869 60.7215C106.642 59.3565 105.584 58.2948 104.222 58.0926C103.97 58.042 103.743 58.0168 103.491 57.9915C103.34 57.9662 103.163 57.9409 103.012 57.9409L101.802 57.764L102.054 56.5759C102.709 53.5425 102.18 50.4333 100.566 47.7791L100.264 47.2989L100.466 46.768C101.272 44.6699 101.121 42.3191 100.062 40.3474C99.0033 38.3757 97.1124 36.9601 94.919 36.4799L94.1878 36.3282L94.0618 35.5698C92.5491 27.4809 85.4898 21.5658 77.296 21.5152C77.2203 21.5152 77.1195 21.5152 77.0438 21.5405C76.943 21.5405 76.8421 21.5658 76.7413 21.5658L76.0858 21.5911L75.7328 21.035C74.4974 19.1138 72.5057 17.8499 70.2367 17.5466C67.9676 17.2685 65.7237 18.0016 64.0598 19.5688L63.4043 20.1755L62.6479 19.6952C60.4293 18.2544 57.8577 17.496 55.2356 17.496C50.9749 17.5213 47.0166 19.4677 44.3946 22.855L43.9156 23.4617L43.1844 23.2342C40.3607 22.4253 37.3857 22.9055 34.9906 24.5992C32.5955 26.2928 31.108 28.947 30.9315 31.8792L30.8811 32.587L30.2256 32.8651C27.3514 34.0784 25.511 36.8843 25.4857 39.9935C25.4857 40.5243 25.5614 41.0552 25.6622 41.586L25.7631 42.0663L25.4857 42.4708C22.7629 46.5911 22.0569 51.672 23.5444 56.3737L23.9478 57.6629L22.6116 57.8398C22.3847 57.8651 22.1326 57.8904 21.9057 57.9409C21.5779 57.9915 21.225 58.042 20.8972 58.0673C19.5358 58.2695 18.4517 59.3312 18.2248 60.6962L17.7709 63.4768H12.7034C11.1907 63.4768 9.87965 64.5638 9.60232 66.0552L0.173115 114.564C-0.129426 116.131 0.273962 117.749 1.28243 118.987C2.2909 120.226 3.80361 120.934 5.39195 120.934H50.8992L51.227 121.49C52.5884 123.74 57.1517 125.256 62.5471 125.256C67.9172 125.256 72.4301 123.74 73.8167 121.49L74.1445 120.959H119.702C121.291 120.959 122.778 120.251 123.812 119.013C124.871 117.749 125.274 116.131 124.971 114.564ZM26.0152 45.858L26.6707 44.2908L27.8556 45.5041C28.259 45.9338 28.7381 46.2877 29.2423 46.6164C29.7213 46.8944 30.3264 46.7427 30.6289 46.2625C30.9063 45.8075 30.7802 45.2513 30.3768 44.9227L30.3012 44.8722C28.133 43.5577 27.0741 40.9288 27.7548 38.4768C28.4355 36.0248 30.6794 34.3059 33.2005 34.3059H33.2258C34.9906 34.3059 36.6798 35.1654 37.7387 36.6062C37.9404 36.8843 38.3185 37.036 38.6715 37.0107C39.0245 36.9601 39.3522 36.7326 39.4783 36.404C39.6296 36.0754 39.5791 35.6962 39.3522 35.3929C38.0916 33.6993 36.1503 32.6123 34.0577 32.3848L32.7972 32.2584L33.0493 31.0198C33.8056 27.5061 36.9571 24.9278 40.5372 24.9278H40.5624H40.5876C40.8901 24.9531 41.1927 24.9783 41.4952 25.0289L42.8819 25.2564L42.3776 26.5709C42.2264 26.9753 42.0751 27.3798 41.9742 27.7842C41.8482 28.315 42.1759 28.8459 42.7054 28.9975C43.2348 29.1239 43.7895 28.8206 43.9408 28.2898C44.2181 27.2534 44.6215 26.2675 45.1761 25.307C47.2687 21.768 51.1261 19.5688 55.2104 19.5436C57.4795 19.5436 59.6477 20.2261 61.5386 21.4647L62.2949 21.945L61.9924 22.7791C61.7151 23.5628 61.5638 24.3969 61.5638 25.2311C61.5638 25.7872 62.0176 26.2422 62.5723 26.2422C63.1269 26.2422 63.5807 25.7872 63.5807 25.2311C63.5807 22.0966 66.1271 19.5436 69.2282 19.5436C72.3544 19.5436 74.9008 22.0966 74.9008 25.2311C74.9008 25.7872 75.3546 26.2422 75.9093 26.2422C76.464 26.2422 76.9178 25.7872 76.9178 25.2311C76.9178 25.2058 76.9178 25.1553 76.8926 25.13C76.8674 25.0289 76.8674 24.9278 76.8674 24.8014L76.7917 23.5375L78.0523 23.6133C84.6578 24.0178 90.3304 28.8206 91.8179 35.2918L92.0701 36.3535L91.0364 36.6568C90.154 36.9096 89.3472 37.314 88.616 37.8701C88.3387 38.0976 88.1622 38.4515 88.2127 38.8054C88.2631 39.1593 88.49 39.4879 88.8177 39.6143C89.1455 39.766 89.5489 39.7154 89.8262 39.4879C91.9692 37.8954 94.9694 38.0218 96.9611 39.7913C98.9529 41.5607 99.4571 44.5183 98.1461 46.8439C97.5662 47.8803 96.6838 48.6892 95.5997 49.1947C95.1963 49.3969 94.9694 49.8772 95.0703 50.3322C95.1711 50.7872 95.5745 51.1158 96.0535 51.1411C96.1796 51.1411 96.3309 51.1158 96.4821 51.04C96.9611 50.8125 97.4402 50.5092 97.8688 50.1553L99.1041 49.1694L99.6336 50.6608C100.894 54.2251 100.113 58.1937 97.5914 60.9996L97.5158 61.0754C94.4148 64.4627 89.3472 65.3727 85.2125 63.3252L85.1872 63.2999C84.7839 63.0724 84.3805 62.8449 84.0023 62.5668L83.0947 61.9096L83.7502 60.9996C85.0864 59.1037 85.2881 56.6517 84.2292 54.5789C84.0779 54.2503 83.7502 54.0481 83.372 54.0228C83.019 53.9976 82.6661 54.1745 82.4644 54.4778C82.2627 54.7812 82.2375 55.1856 82.4139 55.489C83.372 57.4101 82.7669 59.7862 81.0021 60.9996C79.9432 61.7074 78.6826 61.9096 77.4724 61.6062C76.2623 61.3029 75.2538 60.494 74.6739 59.3818C74.4974 59.0279 74.1697 58.8257 73.8167 58.8004C73.4638 58.7751 73.1108 58.952 72.9091 59.2554C72.7074 59.5587 72.6822 59.9379 72.8587 60.2665C73.9428 62.4404 76.111 63.8054 78.5313 63.8054H78.5565C79.3381 63.8054 80.0945 63.6538 80.8256 63.3504L81.4811 63.0976L82.0106 63.5527C82.7165 64.1593 83.4728 64.6902 84.3048 65.1199C87.1285 66.586 90.3557 66.8894 93.3811 65.9541L96.6334 64.9682L94.6164 67.7235C92.297 70.8833 88.8934 72.9814 85.036 73.6133C84.5317 73.6892 84.1536 74.1694 84.1788 74.7003C84.2292 75.2311 84.6578 75.6356 85.1872 75.6356C85.2377 75.6356 85.2881 75.6356 85.3637 75.6356C86.5739 75.4333 87.7588 75.0795 88.9186 74.5992L89.8514 74.1947L90.3557 75.0795C91.0616 76.3181 91.6162 77.6325 92.0448 78.9976C92.1457 79.3262 92.1961 79.6801 92.2213 80.034C92.2213 81.4242 91.3893 82.6881 90.1288 83.219L90.1035 83.2443C89.6749 83.3959 89.2463 83.497 88.8177 83.497C87.7588 83.497 86.7504 83.0168 86.0444 82.1826C84.5065 80.3878 82.5148 79.0481 80.2709 78.3403C75.758 76.8236 73.4133 75.307 72.4049 73.2847L71.6737 71.8439L73.2621 71.6416C74.321 71.5152 75.3547 71.2877 76.3883 70.9844C76.7161 70.8833 76.9934 70.6052 77.069 70.2513C77.1447 69.8974 77.0438 69.5183 76.7665 69.2655C76.4892 69.0127 76.111 68.9369 75.7832 69.038C74.4974 69.4424 73.1612 69.6699 71.7998 69.7711C69.2282 69.9733 66.5809 69.5688 64.1858 68.6083C63.7824 68.4566 63.3286 68.5577 63.0513 68.8863C59.4964 72.9814 53.5465 73.6639 49.1596 70.4788C44.798 67.2938 43.5878 61.404 46.3611 56.7529C46.5628 56.4495 46.5628 56.0451 46.3863 55.7165C46.2098 55.3878 45.8821 55.1856 45.5039 55.1856C45.1509 55.1856 44.798 55.3626 44.6215 55.6912C44.1677 56.4748 43.7895 57.3343 43.487 58.219L43.2348 59.0532L42.3524 59.0026C40.0834 58.8762 38.2681 57.0056 38.2177 54.7053V54.6295C38.2177 54.3767 38.1168 54.0987 37.9152 53.9217C37.7387 53.7448 37.4613 53.6437 37.2092 53.6437C36.6294 53.6437 36.1755 54.1239 36.1755 54.6801C36.1755 57.9409 38.6211 60.6457 41.8482 60.9996L42.8567 61.1007V62.1118C42.8567 62.769 42.9323 63.4263 43.0331 64.0835L43.2096 65.1452L42.1507 65.3727C36.9067 66.5102 31.5366 64.6396 28.1078 60.494C24.7042 56.4495 23.8974 50.7872 26.0152 45.858ZM50.874 118.861H5.39195C4.40869 118.861 3.47586 118.431 2.84556 117.648C2.21527 116.889 1.96315 115.904 2.16485 114.943L11.7705 65.5243H17.4684L10.5099 107.536C10.3335 108.623 10.7369 109.71 11.5688 110.443C12.4008 111.177 13.5354 111.404 14.5943 111.075C26.1917 107.309 38.6715 106.525 50.6723 108.775L51.6808 108.977L50.874 118.861ZM72.1275 120.428C71.2703 121.768 67.4634 123.184 62.5723 123.184C57.6812 123.184 53.8742 121.793 53.017 120.428L52.8153 120.1L53.6977 109.432L54.9835 109.761C57.4039 110.368 59.7738 111.177 62.068 112.137L62.1185 112.162C62.2445 112.238 62.421 112.263 62.5723 112.263C62.7235 112.263 62.8748 112.238 63.0009 112.162L63.0513 112.137C65.3456 111.151 67.7407 110.342 70.1358 109.736L71.4216 109.407L72.304 120.1L72.1275 120.428ZM65.0682 109.129L63.5807 109.635V81.1209C63.5807 80.5901 63.2026 80.1098 62.6731 80.0592C62.068 80.0087 61.5386 80.4637 61.5386 81.0703V109.66L60.0511 109.154C45.2014 104.174 28.8389 104.174 13.9892 109.129C13.8631 109.18 13.7371 109.18 13.6362 109.18C12.9555 109.18 12.4008 108.573 12.5269 107.865L20.4182 60.1907L21.225 60.0643C22.0317 59.9379 22.8889 59.8368 23.6957 59.7357L25.0067 59.5587L25.3849 60.1907C29.1162 66.1563 36.2008 69.038 43.0079 67.3696L43.8651 67.1674L44.2685 67.951C46.0586 71.3383 49.3613 73.7397 53.1179 74.3969C56.8744 75.0289 60.8075 73.8661 63.606 71.2372L64.085 70.7822L64.7153 70.9591C66.1019 71.3636 67.5138 71.6164 68.9509 71.7175L69.7576 71.768L69.9593 72.5516C70.8922 76.0653 73.5646 78.2139 79.565 80.2362C81.4559 80.8176 83.1451 81.9551 84.4309 83.4718C85.515 84.7609 87.1033 85.5193 88.7673 85.5193C89.4985 85.5193 90.2044 85.3676 90.8599 85.0896C92.8768 84.2301 94.1878 82.2331 94.1878 80.034C94.1878 79.4526 94.087 78.8964 93.9105 78.3403C93.4567 76.8742 92.8264 75.4839 92.0953 74.1442L91.591 73.2594L92.423 72.6528C95.8518 70.1755 98.2469 66.5355 99.1294 62.3899L99.1798 62.1118L99.3563 61.8843C99.7849 61.3787 100.163 60.8479 100.491 60.2918L100.869 59.6598L102.079 59.8115C102.634 59.8873 103.239 59.9632 103.819 60.0643L104.626 60.1907L112.517 107.84C112.643 108.674 111.836 109.382 111.029 109.104C103.592 106.626 95.8014 105.363 88.011 105.363C80.2962 105.413 72.5057 106.652 65.0682 109.129ZM122.274 117.673C121.643 118.431 120.711 118.886 119.727 118.886H74.2705L73.4638 108.977L74.4722 108.775C86.473 106.5 98.9781 107.309 110.576 111.101C111.609 111.429 112.744 111.177 113.601 110.443C114.433 109.71 114.836 108.623 114.66 107.536L107.701 65.5496H113.424L123.03 114.968C123.156 115.929 122.904 116.915 122.274 117.673Z" fill="black"/>
<path d="M72.3292 120.1L72.1275 120.428C71.2703 121.768 67.4634 123.184 62.5723 123.184C57.6812 123.184 53.8742 121.793 53.017 120.428L52.8153 120.1L53.6978 109.432L54.9836 109.761C57.4039 110.368 59.7738 111.176 62.0681 112.137L62.1185 112.162C62.2445 112.238 62.421 112.263 62.5723 112.263C62.7236 112.263 62.8748 112.238 63.0009 112.162L63.0513 112.137C65.3456 111.151 67.7407 110.342 70.1358 109.736L71.4216 109.407L72.3292 120.1Z" fill="black"/>
<path d="M76.4639 44.5939C75.5311 49.4473 71.6233 53.239 66.7826 54.0479L66.1271 54.149L65.9002 54.7557C64.5135 58.4716 60.9335 60.9488 56.9752 60.9488H56.95C56.3954 60.9488 55.9415 60.4938 55.9415 59.9377C55.9415 59.3816 56.3954 58.9266 56.95 58.9266C59.3956 58.9266 61.6898 57.7385 63.1017 55.7415L64.1102 54.326L62.421 53.9721C59.9754 53.4412 57.8072 52.2026 56.118 50.332C55.9415 50.1298 55.8659 49.9023 55.8659 49.6495C55.8659 49.3715 55.992 49.0934 56.1937 48.8912C56.6223 48.512 57.2526 48.5373 57.6307 48.967C60.9839 52.5565 66.354 53.1632 70.4383 50.4332C72.5561 48.967 73.9932 46.7678 74.4722 44.2148C74.5226 43.8609 74.7747 43.5575 75.1277 43.4311C75.4807 43.3047 75.8589 43.3806 76.1362 43.6334C76.4387 43.8356 76.5648 44.2148 76.4639 44.5939Z" fill="black"/>
<path d="M56.698 35.7718C56.698 36.3279 56.2442 36.7829 55.6895 36.7829C53.8995 36.7829 52.2103 37.4907 50.9245 38.7546C49.6387 40.0185 48.958 41.7374 48.958 43.5321C48.958 44.0882 48.5042 44.5432 47.9495 44.5432C47.6722 44.5432 47.4201 44.4421 47.2436 44.2399C47.0419 44.0377 46.941 43.7849 46.941 43.5321C46.941 38.6787 50.8741 34.7606 55.7147 34.7354C56.2442 34.7354 56.698 35.1904 56.698 35.7718Z" fill="black"/>
<path d="M63.5808 1.24208V3.39071C63.5808 3.94683 63.127 4.40184 62.5723 4.40184C62.0177 4.40184 61.5639 3.94683 61.5639 3.39071V1.24208C61.5639 0.685962 62.0177 0.230957 62.5723 0.230957C63.127 0.230957 63.5808 0.685962 63.5808 1.24208Z" fill="black"/>
<path d="M100.113 16.8135L97.9445 18.9874C97.6923 19.2402 97.3142 19.3666 96.9612 19.2655C96.6082 19.1644 96.3309 18.8863 96.2301 18.5324C96.1292 18.1785 96.2301 17.7994 96.5074 17.5213L98.6504 15.3727H98.6756C98.8773 15.1704 99.1294 15.0693 99.4067 15.0693C99.4824 15.0693 99.5832 15.0693 99.6589 15.0946C100.012 15.1957 100.289 15.4738 100.39 15.8277C100.491 16.1563 100.39 16.5355 100.113 16.8135Z" fill="black"/>
<path d="M28.8388 18.6334C28.6875 19.0126 28.3094 19.2654 27.906 19.2654C27.6286 19.2654 27.3765 19.1643 27.2 18.962L25.0318 16.7881C24.7545 16.5354 24.6537 16.1562 24.7545 15.8023C24.8553 15.4484 25.1327 15.1703 25.4856 15.0692C25.5613 15.0439 25.6621 15.0439 25.7378 15.0439C26.0151 15.0439 26.2672 15.1451 26.4941 15.3726L28.6371 17.5212C28.9144 17.8245 28.9901 18.2543 28.8388 18.6334Z" fill="black"/>
<path d="M45.4029 9.55859C45.3021 9.81137 45.1004 10.0136 44.8482 10.1147C44.7222 10.1653 44.5961 10.1905 44.4449 10.1905C44.0415 10.1905 43.6633 9.93776 43.512 9.55859L41.0413 3.54241C40.89 3.2138 40.9404 2.80935 41.1673 2.50601C41.369 2.25323 41.6716 2.10156 41.9741 2.10156C42.0245 2.10156 42.0749 2.10156 42.1254 2.10156C42.4783 2.15212 42.8061 2.4049 42.9321 2.75879L45.4029 8.74969C45.5038 9.02775 45.5038 9.30581 45.4029 9.55859Z" fill="black"/>
<path d="M84.1031 3.59293L81.6324 9.58383C81.5567 9.78606 81.4307 9.93772 81.2542 10.0388C81.1029 10.1399 80.9012 10.2158 80.6995 10.2158C80.5735 10.2158 80.4222 10.1905 80.3213 10.1399C80.0692 10.0388 79.8675 9.83661 79.7667 9.58383C79.6658 9.33105 79.6658 9.05299 79.7667 8.80021L82.2374 2.83459C82.3887 2.43014 82.7921 2.20264 83.1703 2.20264C83.2963 2.20264 83.4224 2.22791 83.5485 2.27847C83.8006 2.37958 84.0023 2.58181 84.1031 2.83459C84.204 3.06209 84.204 3.34015 84.1031 3.59293Z" fill="black"/>
<path d="M113.273 32.511C113.223 32.8649 112.996 33.1936 112.643 33.3199L106.668 35.7972C106.542 35.8478 106.416 35.873 106.29 35.873C105.81 35.873 105.382 35.5191 105.281 35.0641C105.18 34.5838 105.432 34.1036 105.886 33.9266L111.861 31.4494C111.987 31.3988 112.113 31.3735 112.239 31.3735C112.466 31.3735 112.668 31.4494 112.87 31.5758C113.172 31.8033 113.324 32.1572 113.273 32.511Z" fill="black"/>
<path d="M19.7877 35.241C19.586 35.7718 18.981 35.9993 18.4515 35.7971L12.4763 33.3198C12.2242 33.2187 12.0225 33.0165 11.9217 32.7637C11.8208 32.5109 11.8208 32.2329 11.9217 31.9801C12.0225 31.7273 12.2242 31.5251 12.4763 31.424C12.6024 31.3734 12.7284 31.3481 12.8545 31.3481C12.9806 31.3481 13.1318 31.3734 13.2327 31.424L19.2079 33.9012C19.46 34.0023 19.6617 34.2046 19.7625 34.4573C19.8886 34.7101 19.8886 34.9882 19.7877 35.241Z" fill="black"/>
</svg>
