<svg width="439" height="298" viewBox="0 0 439 298" fill="none" xmlns="http://www.w3.org/2000/svg">
<rect y="0.749023" width="439" height="297" rx="14" fill="#F5F5F7"/>
<path d="M38.736 36.629C38.912 36.661 39.128 36.693 39.384 36.725C39.64 36.741 39.88 36.749 40.104 36.749C40.648 36.749 41.144 36.669 41.592 36.509C42.056 36.349 42.448 36.101 42.768 35.765C43.104 35.429 43.36 34.997 43.536 34.469C43.728 33.925 43.824 33.277 43.824 32.525C43.824 31.085 43.488 30.005 42.816 29.285C42.144 28.549 41.248 28.181 40.128 28.181C39.904 28.181 39.672 28.189 39.432 28.205C39.208 28.221 38.976 28.245 38.736 28.277V36.629ZM40.08 40.133C39.808 40.133 39.496 40.125 39.144 40.109C38.792 40.093 38.424 40.061 38.04 40.013C37.672 39.965 37.296 39.901 36.912 39.821C36.544 39.757 36.2 39.661 35.88 39.533C35 39.197 34.56 38.613 34.56 37.781V26.573C34.56 26.237 34.648 25.981 34.824 25.805C35.016 25.613 35.272 25.461 35.592 25.349C36.28 25.125 37.008 24.981 37.776 24.917C38.544 24.837 39.232 24.797 39.84 24.797C41.088 24.797 42.216 24.949 43.224 25.253C44.248 25.557 45.12 26.029 45.84 26.669C46.576 27.293 47.144 28.085 47.544 29.045C47.944 30.005 48.144 31.141 48.144 32.453C48.144 33.733 47.952 34.853 47.568 35.813C47.184 36.757 46.632 37.557 45.912 38.213C45.208 38.853 44.36 39.333 43.368 39.653C42.376 39.973 41.28 40.133 40.08 40.133ZM56.4004 40.133C55.4564 40.133 54.5764 40.005 53.7604 39.749C52.9604 39.477 52.2564 39.077 51.6484 38.549C51.0564 38.021 50.5844 37.357 50.2324 36.557C49.8964 35.757 49.7284 34.821 49.7284 33.749C49.7284 32.693 49.8964 31.789 50.2324 31.037C50.5844 30.269 51.0404 29.645 51.6004 29.165C52.1604 28.669 52.8004 28.309 53.5204 28.085C54.2404 27.845 54.9764 27.725 55.7284 27.725C56.5764 27.725 57.3444 27.853 58.0324 28.109C58.7364 28.365 59.3364 28.717 59.8324 29.165C60.3444 29.613 60.7364 30.149 61.0084 30.773C61.2964 31.397 61.4404 32.077 61.4404 32.813C61.4404 33.357 61.2884 33.773 60.9844 34.061C60.6804 34.349 60.2564 34.533 59.7124 34.613L53.7844 35.501C53.9604 36.029 54.3204 36.429 54.8644 36.701C55.4084 36.957 56.0324 37.085 56.7364 37.085C57.3924 37.085 58.0084 37.005 58.5844 36.845C59.1764 36.669 59.6564 36.469 60.0244 36.245C60.2804 36.405 60.4964 36.629 60.6724 36.917C60.8484 37.205 60.9364 37.509 60.9364 37.829C60.9364 38.549 60.6004 39.085 59.9284 39.437C59.4164 39.709 58.8404 39.893 58.2004 39.989C57.5604 40.085 56.9604 40.133 56.4004 40.133ZM55.7284 30.701C55.3444 30.701 55.0084 30.765 54.7204 30.893C54.4484 31.021 54.2244 31.189 54.0484 31.397C53.8724 31.589 53.7364 31.813 53.6404 32.069C53.5604 32.309 53.5124 32.557 53.4964 32.813L57.6004 32.141C57.5524 31.821 57.3764 31.501 57.0724 31.181C56.7684 30.861 56.3204 30.701 55.7284 30.701ZM69.9803 30.941C69.5803 30.941 69.1963 31.005 68.8283 31.133C68.4763 31.261 68.1643 31.453 67.8923 31.709C67.6363 31.949 67.4283 32.253 67.2683 32.621C67.1083 32.989 67.0283 33.421 67.0283 33.917C67.0283 34.909 67.3083 35.653 67.8683 36.149C68.4443 36.645 69.1403 36.893 69.9563 36.893C70.4363 36.893 70.8523 36.837 71.2043 36.725C71.5563 36.613 71.8683 36.493 72.1403 36.365C72.4603 36.589 72.7003 36.837 72.8603 37.109C73.0203 37.365 73.1003 37.677 73.1003 38.045C73.1003 38.701 72.7883 39.213 72.1643 39.581C71.5403 39.933 70.6763 40.109 69.5723 40.109C68.5643 40.109 67.6523 39.965 66.8363 39.677C66.0203 39.373 65.3163 38.957 64.7243 38.429C64.1483 37.885 63.7003 37.237 63.3803 36.485C63.0603 35.733 62.9003 34.901 62.9003 33.989C62.9003 32.933 63.0683 32.013 63.4043 31.229C63.7563 30.429 64.2283 29.773 64.8203 29.261C65.4123 28.749 66.0923 28.365 66.8603 28.109C67.6443 27.853 68.4683 27.725 69.3323 27.725C70.4843 27.725 71.3723 27.933 71.9963 28.349C72.6203 28.765 72.9323 29.301 72.9323 29.957C72.9323 30.261 72.8603 30.549 72.7163 30.821C72.5723 31.077 72.4043 31.301 72.2123 31.493C71.9403 31.365 71.6123 31.245 71.2283 31.133C70.8443 31.005 70.4283 30.941 69.9803 30.941ZM80.9629 40.133C80.0189 40.133 79.1389 40.005 78.3229 39.749C77.5229 39.477 76.8189 39.077 76.2109 38.549C75.6189 38.021 75.1469 37.357 74.7949 36.557C74.4589 35.757 74.2909 34.821 74.2909 33.749C74.2909 32.693 74.4589 31.789 74.7949 31.037C75.1469 30.269 75.6029 29.645 76.1629 29.165C76.7229 28.669 77.3629 28.309 78.0829 28.085C78.8029 27.845 79.5389 27.725 80.2909 27.725C81.1389 27.725 81.9069 27.853 82.5949 28.109C83.2989 28.365 83.8989 28.717 84.3949 29.165C84.9069 29.613 85.2989 30.149 85.5709 30.773C85.8589 31.397 86.0029 32.077 86.0029 32.813C86.0029 33.357 85.8509 33.773 85.5469 34.061C85.2429 34.349 84.8189 34.533 84.2749 34.613L78.3469 35.501C78.5229 36.029 78.8829 36.429 79.4269 36.701C79.9709 36.957 80.5949 37.085 81.2989 37.085C81.9549 37.085 82.5709 37.005 83.1469 36.845C83.7389 36.669 84.2189 36.469 84.5869 36.245C84.8429 36.405 85.0589 36.629 85.2349 36.917C85.4109 37.205 85.4989 37.509 85.4989 37.829C85.4989 38.549 85.1629 39.085 84.4909 39.437C83.9789 39.709 83.4029 39.893 82.7629 39.989C82.1229 40.085 81.5229 40.133 80.9629 40.133ZM80.2909 30.701C79.9069 30.701 79.5709 30.765 79.2829 30.893C79.0109 31.021 78.7869 31.189 78.6109 31.397C78.4349 31.589 78.2989 31.813 78.2029 32.069C78.1229 32.309 78.0749 32.557 78.0589 32.813L82.1629 32.141C82.1149 31.821 81.9389 31.501 81.6349 31.181C81.3309 30.861 80.8829 30.701 80.2909 30.701ZM93.5588 27.725C94.2148 27.725 94.8548 27.821 95.4788 28.013C96.1188 28.189 96.6708 28.461 97.1348 28.829C97.6148 28.509 98.1508 28.245 98.7428 28.037C99.3508 27.829 100.079 27.725 100.927 27.725C101.535 27.725 102.127 27.805 102.703 27.965C103.295 28.125 103.815 28.381 104.263 28.733C104.727 29.069 105.095 29.525 105.367 30.101C105.639 30.661 105.775 31.349 105.775 32.165V39.725C105.615 39.773 105.359 39.821 105.007 39.869C104.671 39.917 104.319 39.941 103.951 39.941C103.599 39.941 103.279 39.917 102.991 39.869C102.719 39.821 102.487 39.725 102.295 39.581C102.103 39.437 101.951 39.245 101.839 39.005C101.743 38.749 101.695 38.421 101.695 38.021V32.285C101.695 31.805 101.559 31.461 101.287 31.253C101.015 31.029 100.647 30.917 100.183 30.917C99.9588 30.917 99.7188 30.973 99.4628 31.085C99.2068 31.181 99.0148 31.285 98.8868 31.397C98.9028 31.461 98.9108 31.525 98.9108 31.589C98.9108 31.637 98.9108 31.685 98.9108 31.733V39.725C98.7348 39.773 98.4708 39.821 98.1188 39.869C97.7828 39.917 97.4388 39.941 97.0868 39.941C96.7348 39.941 96.4148 39.917 96.1268 39.869C95.8548 39.821 95.6228 39.725 95.4308 39.581C95.2388 39.437 95.0868 39.245 94.9748 39.005C94.8788 38.749 94.8308 38.421 94.8308 38.021V32.285C94.8308 31.805 94.6788 31.461 94.3748 31.253C94.0868 31.029 93.7348 30.917 93.3188 30.917C93.0308 30.917 92.7828 30.965 92.5748 31.061C92.3668 31.141 92.1908 31.221 92.0468 31.301V39.725C91.8868 39.773 91.6308 39.821 91.2788 39.869C90.9428 39.917 90.5908 39.941 90.2228 39.941C89.8708 39.941 89.5508 39.917 89.2628 39.869C88.9908 39.821 88.7588 39.725 88.5668 39.581C88.3748 39.437 88.2228 39.245 88.1108 39.005C88.0148 38.749 87.9668 38.421 87.9668 38.021V30.773C87.9668 30.341 88.0548 29.997 88.2308 29.741C88.4228 29.485 88.6788 29.245 88.9988 29.021C89.5428 28.637 90.2148 28.325 91.0148 28.085C91.8308 27.845 92.6788 27.725 93.5588 27.725ZM108.312 24.125C108.472 24.077 108.728 24.029 109.08 23.981C109.432 23.917 109.792 23.885 110.16 23.885C110.512 23.885 110.824 23.909 111.096 23.957C111.384 24.005 111.624 24.101 111.816 24.245C112.008 24.389 112.152 24.589 112.248 24.845C112.344 25.085 112.392 25.405 112.392 25.805V28.157C112.792 27.997 113.168 27.885 113.52 27.821C113.888 27.757 114.288 27.725 114.72 27.725C115.488 27.725 116.216 27.861 116.904 28.133C117.592 28.405 118.2 28.805 118.728 29.333C119.256 29.845 119.672 30.485 119.976 31.253C120.28 32.021 120.432 32.909 120.432 33.917C120.432 34.957 120.272 35.869 119.952 36.653C119.648 37.421 119.216 38.061 118.656 38.573C118.096 39.085 117.408 39.477 116.592 39.749C115.792 40.005 114.904 40.133 113.928 40.133C112.872 40.133 111.976 40.005 111.24 39.749C110.504 39.509 109.88 39.205 109.368 38.837C108.664 38.341 108.312 37.701 108.312 36.917V24.125ZM113.928 36.917C114.664 36.917 115.232 36.669 115.632 36.173C116.048 35.661 116.256 34.909 116.256 33.917C116.256 32.909 116.048 32.157 115.632 31.661C115.216 31.165 114.656 30.917 113.952 30.917C113.632 30.917 113.352 30.949 113.112 31.013C112.888 31.077 112.64 31.173 112.368 31.301V36.533C112.544 36.645 112.752 36.741 112.992 36.821C113.248 36.885 113.56 36.917 113.928 36.917ZM128.588 40.133C127.644 40.133 126.764 40.005 125.948 39.749C125.148 39.477 124.444 39.077 123.836 38.549C123.244 38.021 122.772 37.357 122.42 36.557C122.084 35.757 121.916 34.821 121.916 33.749C121.916 32.693 122.084 31.789 122.42 31.037C122.772 30.269 123.228 29.645 123.788 29.165C124.348 28.669 124.988 28.309 125.708 28.085C126.428 27.845 127.164 27.725 127.916 27.725C128.764 27.725 129.532 27.853 130.22 28.109C130.924 28.365 131.524 28.717 132.02 29.165C132.532 29.613 132.924 30.149 133.196 30.773C133.484 31.397 133.628 32.077 133.628 32.813C133.628 33.357 133.476 33.773 133.172 34.061C132.868 34.349 132.444 34.533 131.9 34.613L125.972 35.501C126.148 36.029 126.508 36.429 127.052 36.701C127.596 36.957 128.22 37.085 128.924 37.085C129.58 37.085 130.196 37.005 130.772 36.845C131.364 36.669 131.844 36.469 132.212 36.245C132.468 36.405 132.684 36.629 132.86 36.917C133.036 37.205 133.124 37.509 133.124 37.829C133.124 38.549 132.788 39.085 132.116 39.437C131.604 39.709 131.028 39.893 130.388 39.989C129.748 40.085 129.148 40.133 128.588 40.133ZM127.916 30.701C127.532 30.701 127.196 30.765 126.908 30.893C126.636 31.021 126.412 31.189 126.236 31.397C126.06 31.589 125.924 31.813 125.828 32.069C125.748 32.309 125.7 32.557 125.684 32.813L129.788 32.141C129.74 31.821 129.564 31.501 129.26 31.181C128.956 30.861 128.508 30.701 127.916 30.701ZM139.672 39.725C139.512 39.773 139.256 39.821 138.904 39.869C138.568 39.917 138.216 39.941 137.848 39.941C137.496 39.941 137.176 39.917 136.888 39.869C136.616 39.821 136.384 39.725 136.192 39.581C136 39.437 135.848 39.245 135.736 39.005C135.64 38.749 135.592 38.421 135.592 38.021V30.821C135.592 30.453 135.656 30.141 135.784 29.885C135.928 29.613 136.128 29.373 136.384 29.165C136.64 28.957 136.952 28.773 137.32 28.613C137.704 28.437 138.112 28.285 138.544 28.157C138.976 28.029 139.424 27.933 139.888 27.869C140.352 27.789 140.816 27.749 141.28 27.749C142.048 27.749 142.656 27.901 143.104 28.205C143.552 28.493 143.776 28.973 143.776 29.645C143.776 29.869 143.744 30.093 143.68 30.317C143.616 30.525 143.536 30.717 143.44 30.893C143.104 30.893 142.76 30.909 142.408 30.941C142.056 30.973 141.712 31.021 141.376 31.085C141.04 31.149 140.72 31.221 140.416 31.301C140.128 31.365 139.88 31.445 139.672 31.541V39.725ZM154.8 24.797C155.712 24.797 156.52 24.917 157.224 25.157C157.928 25.381 158.528 25.693 159.024 26.093C159.52 26.493 159.896 26.965 160.152 27.509C160.408 28.053 160.536 28.637 160.536 29.261C160.536 30.941 159.584 32.541 157.68 34.061L154.536 36.581H160.296C160.392 36.757 160.48 36.981 160.56 37.253C160.656 37.525 160.704 37.821 160.704 38.141C160.704 38.717 160.576 39.133 160.32 39.389C160.064 39.629 159.728 39.749 159.312 39.749H150.984C150.632 39.509 150.352 39.205 150.144 38.837C149.952 38.453 149.856 38.005 149.856 37.493C149.856 36.949 149.968 36.493 150.192 36.125C150.416 35.741 150.664 35.437 150.936 35.213L154.248 32.381C154.664 32.029 155.008 31.717 155.28 31.445C155.552 31.157 155.768 30.901 155.928 30.677C156.104 30.453 156.224 30.245 156.288 30.053C156.368 29.861 156.408 29.677 156.408 29.501C156.408 29.053 156.208 28.701 155.808 28.445C155.424 28.189 154.944 28.061 154.368 28.061C153.728 28.061 153.152 28.165 152.64 28.373C152.144 28.565 151.728 28.773 151.392 28.997C151.12 28.805 150.896 28.565 150.72 28.277C150.544 27.989 150.456 27.653 150.456 27.269C150.456 26.437 150.848 25.821 151.632 25.421C152.416 25.005 153.472 24.797 154.8 24.797ZM171.155 32.453C171.155 31.045 170.947 29.957 170.531 29.189C170.131 28.421 169.555 28.037 168.803 28.037C168.051 28.037 167.475 28.421 167.075 29.189C166.691 29.957 166.499 31.045 166.499 32.453C166.499 33.861 166.691 34.957 167.075 35.741C167.475 36.509 168.051 36.893 168.803 36.893C169.555 36.893 170.131 36.509 170.531 35.741C170.947 34.957 171.155 33.861 171.155 32.453ZM175.259 32.453C175.259 33.685 175.099 34.781 174.779 35.741C174.459 36.701 174.011 37.509 173.435 38.165C172.875 38.805 172.195 39.293 171.395 39.629C170.611 39.965 169.755 40.133 168.827 40.133C167.883 40.133 167.011 39.965 166.211 39.629C165.427 39.293 164.747 38.805 164.171 38.165C163.611 37.509 163.171 36.701 162.851 35.741C162.547 34.781 162.395 33.685 162.395 32.453C162.395 31.221 162.547 30.133 162.851 29.189C163.171 28.229 163.611 27.429 164.171 26.789C164.747 26.133 165.427 25.637 166.211 25.301C167.011 24.965 167.883 24.797 168.827 24.797C169.755 24.797 170.611 24.965 171.395 25.301C172.195 25.637 172.875 26.133 173.435 26.789C174.011 27.429 174.459 28.229 174.779 29.189C175.099 30.133 175.259 31.221 175.259 32.453ZM181.542 24.797C182.454 24.797 183.262 24.917 183.966 25.157C184.67 25.381 185.27 25.693 185.766 26.093C186.262 26.493 186.638 26.965 186.894 27.509C187.15 28.053 187.278 28.637 187.278 29.261C187.278 30.941 186.326 32.541 184.422 34.061L181.278 36.581H187.038C187.134 36.757 187.222 36.981 187.302 37.253C187.398 37.525 187.446 37.821 187.446 38.141C187.446 38.717 187.318 39.133 187.062 39.389C186.806 39.629 186.47 39.749 186.054 39.749H177.726C177.374 39.509 177.094 39.205 176.886 38.837C176.694 38.453 176.598 38.005 176.598 37.493C176.598 36.949 176.71 36.493 176.934 36.125C177.158 35.741 177.406 35.437 177.678 35.213L180.99 32.381C181.406 32.029 181.75 31.717 182.022 31.445C182.294 31.157 182.51 30.901 182.67 30.677C182.846 30.453 182.966 30.245 183.03 30.053C183.11 29.861 183.15 29.677 183.15 29.501C183.15 29.053 182.95 28.701 182.55 28.445C182.166 28.189 181.686 28.061 181.11 28.061C180.47 28.061 179.894 28.165 179.382 28.373C178.886 28.565 178.47 28.773 178.134 28.997C177.862 28.805 177.638 28.565 177.462 28.277C177.286 27.989 177.198 27.653 177.198 27.269C177.198 26.437 177.59 25.821 178.374 25.421C179.158 25.005 180.214 24.797 181.542 24.797ZM192.017 29.045L189.617 29.789C189.377 29.629 189.137 29.405 188.897 29.117C188.657 28.829 188.537 28.429 188.537 27.917C188.537 26.957 189.121 26.285 190.289 25.901L192.977 24.989H193.865C194.553 24.989 195.097 25.189 195.497 25.589C195.897 25.989 196.097 26.533 196.097 27.221V39.725C195.921 39.757 195.657 39.797 195.305 39.845C194.969 39.909 194.625 39.941 194.273 39.941C193.921 39.941 193.601 39.917 193.313 39.869C193.041 39.821 192.809 39.725 192.617 39.581C192.425 39.437 192.273 39.245 192.161 39.005C192.065 38.749 192.017 38.421 192.017 38.021V29.045Z" fill="black"/>
<path fill-rule="evenodd" clip-rule="evenodd" d="M376.086 25.6634L378.914 22.835L390.5 34.4207L402.086 22.835L404.914 25.6634L390.5 40.0776L376.086 25.6634Z" fill="black"/>
<path d="M44.7729 85.0218V93.749H46.29V87.7405H46.3709L48.7828 93.7235H49.9164L52.3283 87.7533H52.4093V93.749H53.9263V85.0218H51.9917L49.4007 91.3456H49.2985L46.7076 85.0218H44.7729ZM58.4348 93.8769C60.3525 93.8769 61.5712 92.526 61.5712 90.5019C61.5712 88.4735 60.3525 87.1183 58.4348 87.1183C56.5172 87.1183 55.2985 88.4735 55.2985 90.5019C55.2985 92.526 56.5172 93.8769 58.4348 93.8769ZM58.4434 92.6411C57.3823 92.6411 56.8624 91.695 56.8624 90.4976C56.8624 89.3002 57.3823 88.3414 58.4434 88.3414C59.4874 88.3414 60.0073 89.3002 60.0073 90.4976C60.0073 91.695 59.4874 92.6411 58.4434 92.6411Z" fill="black"/>
<path d="M101.978 86.347H104.675V93.749H106.244V86.347H108.941V85.0218H101.978V86.347ZM113.496 90.9962C113.496 91.9933 112.785 92.4877 112.103 92.4877C111.361 92.4877 110.867 91.9635 110.867 91.1325V87.2036H109.325V91.3712C109.325 92.9436 110.219 93.8343 111.506 93.8343C112.486 93.8343 113.177 93.3186 113.475 92.5857H113.543V93.749H115.039V87.2036H113.496V90.9962Z" fill="black"/>
<path d="M157.767 93.749H159.327L161.078 87.6254H161.146L162.894 93.749H164.453L166.916 85.0218H165.216L163.644 91.4394H163.567L161.884 85.0218H160.337L158.658 91.4351H158.577L157.004 85.0218H155.304L157.767 93.749ZM170.174 93.8769C171.7 93.8769 172.748 93.1311 173.021 91.9933L171.58 91.8314C171.372 92.3854 170.86 92.6752 170.195 92.6752C169.198 92.6752 168.538 92.0189 168.525 90.8982H173.085V90.4252C173.085 88.1283 171.704 87.1183 170.093 87.1183C168.218 87.1183 166.995 88.4948 166.995 90.5146C166.995 92.5686 168.201 93.8769 170.174 93.8769ZM168.529 89.8584C168.576 89.0232 169.194 88.32 170.114 88.32C171.001 88.32 171.597 88.9678 171.606 89.8584H168.529Z" fill="black"/>
<path d="M212.837 86.347H215.534V93.749H217.102V86.347H219.8V85.0218H212.837V86.347ZM222.616 89.9138C222.616 88.9678 223.205 88.4223 224.031 88.4223C224.841 88.4223 225.318 88.9379 225.318 89.82V93.749H226.861V89.5814C226.861 88.0004 225.966 87.1183 224.607 87.1183C223.601 87.1183 222.962 87.5743 222.659 88.3158H222.582V85.0218H221.074V93.749H222.616V89.9138Z" fill="black"/>
<path d="M270.68 93.749H272.261V90.0416H275.887V88.7164H272.261V86.347H276.271V85.0218H270.68V93.749ZM277.549 93.749H279.092V89.901C279.092 89.07 279.718 88.482 280.566 88.482C280.826 88.482 281.15 88.5289 281.282 88.5715V87.1524C281.141 87.1269 280.899 87.1098 280.728 87.1098C279.978 87.1098 279.352 87.536 279.113 88.2945H279.045V87.2036H277.549V93.749Z" fill="black"/>
<path d="M329.595 87.4209H331.117C331.087 85.9465 329.83 84.9024 327.972 84.9024C326.139 84.9024 324.763 85.9337 324.767 87.4763C324.767 88.7291 325.658 89.4493 327.094 89.82L328.087 90.0757C329.029 90.3144 329.651 90.6084 329.655 91.286C329.651 92.0317 328.943 92.5303 327.912 92.5303C326.923 92.5303 326.156 92.0871 326.092 91.1709H324.537C324.601 92.9053 325.892 93.8811 327.925 93.8811C330.017 93.8811 331.232 92.8371 331.236 91.2987C331.232 89.786 329.983 89.0956 328.671 88.7845L327.852 88.58C327.136 88.4095 326.361 88.107 326.369 87.3783C326.374 86.722 326.962 86.2405 327.95 86.2405C328.892 86.2405 329.514 86.6794 329.595 87.4209ZM334.461 93.8811C335.488 93.8811 336.101 93.3996 336.383 92.8499H336.434V93.749H337.917V89.3683C337.917 87.6382 336.506 87.1183 335.258 87.1183C333.881 87.1183 332.824 87.732 332.483 88.9252L333.924 89.1297C334.077 88.6823 334.512 88.2987 335.266 88.2987C335.982 88.2987 336.374 88.6652 336.374 89.3087V89.3343C336.374 89.7774 335.91 89.7987 334.755 89.9223C333.485 90.0587 332.27 90.4379 332.27 91.9124C332.27 93.1993 333.212 93.8811 334.461 93.8811ZM334.861 92.7476C334.218 92.7476 333.758 92.4536 333.758 91.8868C333.758 91.2945 334.273 91.0473 334.964 90.9493C335.368 90.8939 336.178 90.7916 336.378 90.6297V91.401C336.378 92.1297 335.79 92.7476 334.861 92.7476Z" fill="black"/>
<path d="M385.057 87.4209H386.578C386.548 85.9465 385.291 84.9024 383.433 84.9024C381.601 84.9024 380.224 85.9337 380.229 87.4763C380.229 88.7291 381.119 89.4493 382.555 89.82L383.548 90.0757C384.49 90.3144 385.112 90.6084 385.116 91.286C385.112 92.0317 384.405 92.5303 383.374 92.5303C382.385 92.5303 381.618 92.0871 381.554 91.1709H379.999C380.062 92.9053 381.354 93.8811 383.386 93.8811C385.479 93.8811 386.693 92.8371 386.697 91.2987C386.693 89.786 385.445 89.0956 384.132 88.7845L383.314 88.58C382.598 88.4095 381.822 88.107 381.831 87.3783C381.835 86.722 382.423 86.2405 383.412 86.2405C384.354 86.2405 384.976 86.6794 385.057 87.4209ZM392.211 90.9962C392.211 91.9933 391.499 92.4877 390.817 92.4877C390.076 92.4877 389.581 91.9635 389.581 91.1325V87.2036H388.039V91.3712C388.039 92.9436 388.934 93.8343 390.221 93.8343C391.201 93.8343 391.891 93.3186 392.189 92.5857H392.257V93.749H393.753V87.2036H392.211V90.9962Z" fill="black"/>
<path d="M54.1777 119.822H53.1209L50.9391 121.27V122.344L53.0698 120.93H53.1209V128.549H54.1777V119.822Z" fill="black"/>
<path d="M105.941 128.549H111.447V127.611H107.39V127.543L109.35 125.447C110.85 123.84 111.293 123.09 111.293 122.123C111.293 120.776 110.202 119.702 108.668 119.702C107.138 119.702 105.975 120.742 105.975 122.276H106.981C106.981 121.283 107.624 120.623 108.634 120.623C109.58 120.623 110.305 121.202 110.305 122.123C110.305 122.928 109.832 123.525 108.822 124.628L105.941 127.782V128.549Z" fill="black"/>
<path d="M164.369 128.668C166.061 128.668 167.318 127.607 167.318 126.18C167.318 125.072 166.662 124.266 165.562 124.083V124.015C166.444 123.746 166.994 123.022 166.994 122.037C166.994 120.802 166.018 119.702 164.403 119.702C162.895 119.702 161.642 120.631 161.591 122.003H162.613C162.652 121.134 163.478 120.623 164.386 120.623C165.349 120.623 165.971 121.206 165.971 122.089C165.971 123.009 165.251 123.606 164.216 123.606H163.517V124.543H164.216C165.541 124.543 166.278 125.216 166.278 126.18C166.278 127.104 165.473 127.731 164.352 127.731C163.342 127.731 162.541 127.211 162.477 126.367H161.403C161.467 127.739 162.677 128.668 164.369 128.668Z" fill="black"/>
<path d="M216.848 126.759H220.956V128.549H221.962V126.759H223.155V125.822H221.962V119.822H220.683L216.848 125.89V126.759ZM220.956 125.822H217.99V125.753L220.888 121.168H220.956V125.822Z" fill="black"/>
<path d="M275.634 128.668C277.296 128.668 278.515 127.441 278.515 125.77C278.515 124.079 277.339 122.839 275.736 122.839C275.148 122.839 274.577 123.047 274.219 123.333H274.168L274.475 120.759H278.123V119.822H273.589L273.06 124.117L274.049 124.236C274.411 123.976 275.029 123.789 275.566 123.793C276.678 123.802 277.492 124.645 277.492 125.787C277.492 126.908 276.708 127.731 275.634 127.731C274.739 127.731 274.028 127.155 273.947 126.367H272.924C272.988 127.697 274.134 128.668 275.634 128.668Z" fill="black"/>
<path d="M331.386 128.668C333.15 128.689 334.301 127.36 334.301 125.736C334.301 124.049 333.052 122.839 331.557 122.839C330.657 122.839 329.886 123.278 329.409 123.998H329.341C329.345 121.871 330.172 120.64 331.522 120.64C332.443 120.64 332.997 121.219 333.193 122.003H334.233C334.02 120.648 332.988 119.702 331.522 119.702C329.558 119.702 328.352 121.441 328.352 124.526C328.352 127.752 329.954 128.651 331.386 128.668ZM331.386 127.731C330.291 127.731 329.49 126.797 329.494 125.753C329.498 124.709 330.338 123.776 331.42 123.776C332.49 123.776 333.278 124.654 333.278 125.736C333.278 126.844 332.456 127.731 331.386 127.731Z" fill="black"/>
<path d="M384.752 128.549H385.86L389.746 120.81V119.822H384.155V120.759H388.655V120.827L384.752 128.549Z" fill="black"/>
<path d="M53.0016 163.468C54.7445 163.468 55.959 162.45 55.9675 161.031C55.959 159.927 55.2218 158.99 54.28 158.815V158.764C55.0982 158.551 55.6351 157.75 55.6436 156.821C55.6351 155.491 54.5186 154.503 53.0016 154.503C51.4675 154.503 50.351 155.491 50.3596 156.821C50.351 157.75 50.888 158.551 51.7232 158.764V158.815C50.7644 158.99 50.0272 159.927 50.0357 161.031C50.0272 162.45 51.2417 163.468 53.0016 163.468ZM53.0016 162.531C51.8042 162.531 51.0669 161.917 51.0755 160.98C51.0669 159.995 51.8809 159.292 53.0016 159.292C54.1053 159.292 54.9192 159.995 54.9277 160.98C54.9192 161.917 54.182 162.531 53.0016 162.531ZM53.0016 158.389C52.0471 158.389 51.3738 157.792 51.3823 156.889C51.3738 156.003 52.0215 155.423 53.0016 155.423C53.9647 155.423 54.6124 156.003 54.6209 156.889C54.6124 157.792 53.9391 158.389 53.0016 158.389Z" fill="black"/>
<path d="M108.6 154.503C106.827 154.481 105.685 155.815 105.685 157.417C105.685 159.105 106.93 160.315 108.43 160.315C109.333 160.315 110.1 159.872 110.577 159.156H110.646C110.646 161.304 109.81 162.531 108.464 162.531C107.543 162.531 106.981 161.951 106.793 161.15H105.753C105.958 162.531 106.998 163.468 108.464 163.468C110.424 163.468 111.634 161.73 111.634 158.628C111.634 155.423 110.032 154.52 108.6 154.503ZM108.6 155.44C109.691 155.44 110.492 156.378 110.492 157.4C110.492 158.44 109.64 159.378 108.566 159.378C107.492 159.378 106.708 158.508 106.708 157.417C106.708 156.326 107.526 155.44 108.6 155.44Z" fill="black"/>
<path d="M161.626 154.622H160.569L158.388 156.071V157.145L160.518 155.73H160.569V163.349H161.626V154.622ZM168.22 163.468C170.146 163.468 171.254 161.836 171.254 158.985C171.254 156.156 170.129 154.503 168.22 154.503C166.311 154.503 165.186 156.156 165.186 158.985C165.186 161.836 166.294 163.468 168.22 163.468ZM168.22 162.531C166.95 162.531 166.208 161.257 166.208 158.985C166.208 156.718 166.958 155.423 168.22 155.423C169.481 155.423 170.231 156.718 170.231 158.985C170.231 161.257 169.49 162.531 168.22 162.531Z" fill="black"/>
<path d="M217.293 154.622H216.236L214.054 156.071V157.145L216.185 155.73H216.236V163.349H217.293V154.622ZM225.062 154.622H224.006L221.824 156.071V157.145L223.955 155.73H224.006V163.349H225.062V154.622Z" fill="black"/>
<path d="M272.96 154.622H271.903L269.721 156.071V157.145L271.852 155.73H271.903V163.349H272.96V154.622ZM276.826 163.349H282.331V162.412H278.275V162.343L280.235 160.247C281.735 158.64 282.178 157.89 282.178 156.923C282.178 155.576 281.087 154.503 279.553 154.503C278.023 154.503 276.86 155.542 276.86 157.076H277.866C277.866 156.083 278.509 155.423 279.519 155.423C280.465 155.423 281.189 156.003 281.189 156.923C281.189 157.728 280.716 158.325 279.706 159.429L276.826 162.582V163.349Z" fill="black"/>
<path d="M328.626 154.622H327.57L325.388 156.071V157.145L327.518 155.73H327.57V163.349H328.626V154.622ZM335.254 163.468C336.946 163.468 338.203 162.407 338.203 160.98C338.203 159.872 337.546 159.066 336.447 158.883V158.815C337.329 158.547 337.879 157.822 337.879 156.838C337.879 155.602 336.903 154.503 335.288 154.503C333.779 154.503 332.527 155.432 332.475 156.804H333.498C333.536 155.934 334.363 155.423 335.271 155.423C336.234 155.423 336.856 156.007 336.856 156.889C336.856 157.809 336.136 158.406 335.1 158.406H334.402V159.343H335.1C336.426 159.343 337.163 160.017 337.163 160.98C337.163 161.905 336.358 162.531 335.237 162.531C334.227 162.531 333.426 162.011 333.362 161.167H332.288C332.352 162.539 333.562 163.468 335.254 163.468Z" fill="black"/>
<path d="M384.293 154.622H383.236L381.054 156.071V157.145L383.185 155.73H383.236V163.349H384.293V154.622ZM387.733 161.559H391.841V163.349H392.847V161.559H394.04V160.622H392.847V154.622H391.568L387.733 160.69V161.559ZM391.841 160.622H388.875V160.554L391.773 155.968H391.841V160.622Z" fill="black"/>
<path d="M50.293 189.422H49.2362L47.0543 190.871V191.944L49.185 190.53H49.2362V198.149H50.293V189.422ZM56.8523 198.268C58.5142 198.268 59.733 197.041 59.733 195.371C59.733 193.679 58.5568 192.439 56.9545 192.439C56.3665 192.439 55.7955 192.648 55.4375 192.933H55.3864L55.6932 190.359H59.3409V189.422H54.8068L54.2784 193.717L55.267 193.836C55.6293 193.576 56.2472 193.389 56.7841 193.393C57.8963 193.402 58.7102 194.246 58.7102 195.388C58.7102 196.508 57.9261 197.331 56.8523 197.331C55.9574 197.331 55.2457 196.755 55.1648 195.967H54.142C54.206 197.297 55.3523 198.268 56.8523 198.268Z" fill="black"/>
<path d="M105.96 189.422H104.903L102.721 190.871V191.944L104.852 190.53H104.903V198.149H105.96V189.422ZM112.604 198.268C114.368 198.29 115.519 196.96 115.519 195.336C115.519 193.649 114.27 192.439 112.775 192.439C111.875 192.439 111.104 192.878 110.627 193.598H110.559C110.563 191.471 111.39 190.24 112.741 190.24C113.661 190.24 114.215 190.819 114.411 191.603H115.451C115.238 190.248 114.206 189.302 112.741 189.302C110.776 189.302 109.57 191.041 109.57 194.126C109.57 197.352 111.172 198.251 112.604 198.268ZM112.604 197.331C111.509 197.331 110.708 196.398 110.712 195.353C110.716 194.309 111.556 193.376 112.638 193.376C113.708 193.376 114.496 194.254 114.496 195.336C114.496 196.444 113.674 197.331 112.604 197.331Z" fill="black"/>
<path d="M161.626 189.422H160.569L158.388 190.871V191.944L160.518 190.53H160.569V198.149H161.626V189.422ZM165.97 198.149H167.078L170.964 190.41V189.422H165.373V190.359H169.873V190.427L165.97 198.149Z" fill="black"/>
<g filter="url(#filter0_d)">
<rect x="200" y="173.149" width="40" height="40" rx="10" fill="#F37172"/>
<path d="M217.468 189.422H215.963L213.794 190.815V192.264L215.836 190.96H215.887V198.149H217.468V189.422ZM224.023 198.268C225.911 198.268 227.261 197.228 227.266 195.809C227.261 194.719 226.456 193.807 225.442 193.636V193.576C226.324 193.38 226.938 192.588 226.942 191.642C226.938 190.299 225.702 189.302 224.023 189.302C222.331 189.302 221.095 190.295 221.099 191.642C221.095 192.588 221.7 193.38 222.599 193.576V193.636C221.568 193.807 220.771 194.719 220.776 195.809C220.771 197.228 222.118 198.268 224.023 198.268ZM224.023 197.049C223.034 197.049 222.395 196.504 222.403 195.699C222.395 194.863 223.081 194.271 224.023 194.271C224.952 194.271 225.634 194.868 225.642 195.699C225.634 196.504 224.999 197.049 224.023 197.049ZM224.023 193.074C223.213 193.074 222.634 192.549 222.642 191.791C222.634 191.041 223.196 190.538 224.023 190.538C224.837 190.538 225.395 191.041 225.403 191.791C225.395 192.554 224.82 193.074 224.023 193.074Z" fill="white"/>
</g>
<path d="M272.96 189.422H271.903L269.721 190.871V191.944L271.852 190.53H271.903V198.149H272.96V189.422ZM279.485 189.302C277.712 189.281 276.57 190.615 276.57 192.217C276.57 193.905 277.814 195.115 279.314 195.115C280.218 195.115 280.985 194.672 281.462 193.956H281.53C281.53 196.103 280.695 197.331 279.349 197.331C278.428 197.331 277.866 196.751 277.678 195.95H276.638C276.843 197.331 277.883 198.268 279.349 198.268C281.309 198.268 282.519 196.53 282.519 193.427C282.519 190.223 280.917 189.319 279.485 189.302ZM279.485 190.24C280.576 190.24 281.377 191.177 281.377 192.2C281.377 193.24 280.525 194.177 279.451 194.177C278.377 194.177 277.593 193.308 277.593 192.217C277.593 191.126 278.411 190.24 279.485 190.24Z" fill="black"/>
<path d="M324.723 198.149H330.229V197.211H326.172V197.143L328.132 195.047C329.632 193.44 330.075 192.69 330.075 191.723C330.075 190.376 328.984 189.302 327.45 189.302C325.92 189.302 324.757 190.342 324.757 191.876H325.763C325.763 190.883 326.406 190.223 327.416 190.223C328.362 190.223 329.087 190.802 329.087 191.723C329.087 192.528 328.614 193.125 327.604 194.228L324.723 197.382V198.149ZM335.22 198.268C337.146 198.268 338.254 196.636 338.254 193.785C338.254 190.956 337.129 189.302 335.22 189.302C333.311 189.302 332.186 190.956 332.186 193.785C332.186 196.636 333.294 198.268 335.22 198.268ZM335.22 197.331C333.95 197.331 333.208 196.057 333.208 193.785C333.208 191.518 333.958 190.223 335.22 190.223C336.481 190.223 337.231 191.518 337.231 193.785C337.231 196.057 336.49 197.331 335.22 197.331Z" fill="black"/>
<path d="M380.39 198.149H385.895V197.211H381.838V197.143L383.799 195.047C385.299 193.44 385.742 192.69 385.742 191.723C385.742 190.376 384.651 189.302 383.117 189.302C381.587 189.302 380.424 190.342 380.424 191.876H381.429C381.429 190.883 382.073 190.223 383.083 190.223C384.029 190.223 384.753 190.802 384.753 191.723C384.753 192.528 384.28 193.125 383.27 194.228L380.39 197.382V198.149ZM392.062 189.422H391.006L388.824 190.871V191.944L390.955 190.53H391.006V198.149H392.062V189.422Z" fill="black"/>
<path d="M46.3896 232.949H51.8952V232.012H47.8384V231.944L49.7987 229.847C51.2987 228.24 51.7418 227.49 51.7418 226.523C51.7418 225.176 50.6509 224.103 49.1168 224.103C47.587 224.103 46.4237 225.142 46.4237 226.676H47.4293C47.4293 225.684 48.0728 225.023 49.0827 225.023C50.0288 225.023 50.7532 225.603 50.7532 226.523C50.7532 227.328 50.2802 227.925 49.2702 229.029L46.3896 232.182V232.949ZM54.1591 232.949H59.6648V232.012H55.608V231.944L57.5682 229.847C59.0682 228.24 59.5114 227.49 59.5114 226.523C59.5114 225.176 58.4205 224.103 56.8864 224.103C55.3565 224.103 54.1932 225.142 54.1932 226.676H55.1989C55.1989 225.684 55.8423 225.023 56.8523 225.023C57.7983 225.023 58.5227 225.603 58.5227 226.523C58.5227 227.328 58.0497 227.925 57.0398 229.029L54.1591 232.182V232.949Z" fill="black"/>
<path d="M102.056 232.949H107.562V232.012H103.505V231.944L105.465 229.847C106.965 228.24 107.408 227.49 107.408 226.523C107.408 225.176 106.318 224.103 104.783 224.103C103.254 224.103 102.09 225.142 102.09 226.676H103.096C103.096 225.684 103.739 225.023 104.749 225.023C105.695 225.023 106.42 225.603 106.42 226.523C106.42 227.328 105.947 227.925 104.937 229.029L102.056 232.182V232.949ZM112.587 233.069C114.279 233.069 115.536 232.007 115.536 230.58C115.536 229.472 114.88 228.667 113.78 228.483V228.415C114.662 228.147 115.212 227.422 115.212 226.438C115.212 225.202 114.236 224.103 112.621 224.103C111.113 224.103 109.86 225.032 109.809 226.404H110.831C110.87 225.534 111.696 225.023 112.604 225.023C113.567 225.023 114.189 225.607 114.189 226.489C114.189 227.409 113.469 228.006 112.434 228.006H111.735V228.944H112.434C113.759 228.944 114.496 229.617 114.496 230.58C114.496 231.505 113.691 232.131 112.57 232.131C111.56 232.131 110.759 231.611 110.695 230.767H109.621C109.685 232.14 110.895 233.069 112.587 233.069Z" fill="black"/>
<path d="M157.723 232.949H163.229V232.012H159.172V231.944L161.132 229.847C162.632 228.24 163.075 227.49 163.075 226.523C163.075 225.176 161.984 224.103 160.45 224.103C158.92 224.103 157.757 225.142 157.757 226.676H158.763C158.763 225.684 159.406 225.023 160.416 225.023C161.362 225.023 162.087 225.603 162.087 226.523C162.087 227.328 161.614 227.925 160.604 229.029L157.723 232.182V232.949ZM165.066 231.159H169.174V232.949H170.18V231.159H171.373V230.222H170.18V224.222H168.902L165.066 230.29V231.159ZM169.174 230.222H166.208V230.154L169.106 225.569H169.174V230.222Z" fill="black"/>
<path d="M213.39 232.949H218.895V232.012H214.838V231.944L216.799 229.847C218.299 228.24 218.742 227.49 218.742 226.523C218.742 225.176 217.651 224.103 216.117 224.103C214.587 224.103 213.424 225.142 213.424 226.676H214.429C214.429 225.684 215.073 225.023 216.083 225.023C217.029 225.023 217.753 225.603 217.753 226.523C217.753 227.328 217.28 227.925 216.27 229.029L213.39 232.182V232.949ZM223.852 233.069C225.514 233.069 226.733 231.841 226.733 230.171C226.733 228.479 225.557 227.239 223.955 227.239C223.366 227.239 222.795 227.448 222.438 227.733H222.386L222.693 225.159H226.341V224.222H221.807L221.278 228.517L222.267 228.637C222.629 228.377 223.247 228.189 223.784 228.194C224.896 228.202 225.71 229.046 225.71 230.188C225.71 231.309 224.926 232.131 223.852 232.131C222.957 232.131 222.246 231.556 222.165 230.767H221.142C221.206 232.097 222.352 233.069 223.852 233.069Z" fill="black"/>
<path d="M269.056 232.949H274.562V232.012H270.505V231.944L272.465 229.847C273.965 228.24 274.409 227.49 274.409 226.523C274.409 225.176 273.318 224.103 271.784 224.103C270.254 224.103 269.09 225.142 269.09 226.676H270.096C270.096 225.684 270.739 225.023 271.749 225.023C272.695 225.023 273.42 225.603 273.42 226.523C273.42 227.328 272.947 227.925 271.937 229.029L269.056 232.182V232.949ZM279.604 233.069C281.368 233.09 282.519 231.76 282.519 230.137C282.519 228.449 281.27 227.239 279.775 227.239C278.875 227.239 278.104 227.678 277.627 228.398H277.559C277.563 226.272 278.39 225.04 279.741 225.04C280.661 225.04 281.215 225.62 281.411 226.404H282.451C282.238 225.049 281.206 224.103 279.741 224.103C277.776 224.103 276.57 225.841 276.57 228.926C276.57 232.152 278.172 233.051 279.604 233.069ZM279.604 232.131C278.509 232.131 277.708 231.198 277.712 230.154C277.716 229.11 278.556 228.176 279.638 228.176C280.708 228.176 281.496 229.054 281.496 230.137C281.496 231.245 280.674 232.131 279.604 232.131Z" fill="black"/>
<path d="M324.723 232.949H330.229V232.012H326.172V231.944L328.132 229.847C329.632 228.24 330.075 227.49 330.075 226.523C330.075 225.176 328.984 224.103 327.45 224.103C325.92 224.103 324.757 225.142 324.757 226.676H325.763C325.763 225.684 326.406 225.023 327.416 225.023C328.362 225.023 329.087 225.603 329.087 226.523C329.087 227.328 328.614 227.925 327.604 229.029L324.723 232.182V232.949ZM332.97 232.949H334.078L337.964 225.211V224.222H332.373V225.159H336.873V225.228L332.97 232.949Z" fill="black"/>
<path d="M380.39 232.949H385.895V232.012H381.838V231.944L383.799 229.847C385.299 228.24 385.742 227.49 385.742 226.523C385.742 225.176 384.651 224.103 383.117 224.103C381.587 224.103 380.424 225.142 380.424 226.676H381.429C381.429 225.684 382.073 225.023 383.083 225.023C384.029 225.023 384.753 225.603 384.753 226.523C384.753 227.328 384.28 227.925 383.27 229.029L380.39 232.182V232.949ZM390.886 233.069C392.629 233.069 393.844 232.05 393.852 230.631C393.844 229.527 393.107 228.59 392.165 228.415V228.364C392.983 228.151 393.52 227.35 393.528 226.421C393.52 225.091 392.403 224.103 390.886 224.103C389.352 224.103 388.236 225.091 388.244 226.421C388.236 227.35 388.773 228.151 389.608 228.364V228.415C388.649 228.59 387.912 229.527 387.92 230.631C387.912 232.05 389.126 233.069 390.886 233.069ZM390.886 232.131C389.689 232.131 388.952 231.517 388.96 230.58C388.952 229.596 389.766 228.892 390.886 228.892C391.99 228.892 392.804 229.596 392.812 230.58C392.804 231.517 392.067 232.131 390.886 232.131ZM390.886 227.989C389.932 227.989 389.259 227.392 389.267 226.489C389.259 225.603 389.906 225.023 390.886 225.023C391.849 225.023 392.497 225.603 392.506 226.489C392.497 227.392 391.824 227.989 390.886 227.989Z" fill="black"/>
<path d="M46.3896 267.749H51.8952V266.812H47.8384V266.743L49.7987 264.647C51.2987 263.04 51.7418 262.29 51.7418 261.323C51.7418 259.976 50.6509 258.902 49.1168 258.902C47.587 258.902 46.4237 259.942 46.4237 261.476H47.4293C47.4293 260.483 48.0728 259.823 49.0827 259.823C50.0288 259.823 50.7532 260.402 50.7532 261.323C50.7532 262.128 50.2802 262.725 49.2702 263.829L46.3896 266.982V267.749ZM56.8182 258.902C55.0455 258.881 53.9034 260.215 53.9034 261.817C53.9034 263.505 55.1477 264.715 56.6477 264.715C57.5511 264.715 58.3182 264.272 58.7955 263.556H58.8636C58.8636 265.704 58.0284 266.931 56.6818 266.931C55.7614 266.931 55.1989 266.351 55.0114 265.55H53.9716C54.1761 266.931 55.2159 267.868 56.6818 267.868C58.642 267.868 59.8523 266.13 59.8523 263.027C59.8523 259.823 58.25 258.919 56.8182 258.902ZM56.8182 259.84C57.9091 259.84 58.7102 260.777 58.7102 261.8C58.7102 262.84 57.858 263.777 56.7841 263.777C55.7102 263.777 54.9261 262.908 54.9261 261.817C54.9261 260.726 55.7443 259.84 56.8182 259.84Z" fill="black"/>
<path d="M104.818 267.868C106.509 267.868 107.766 266.807 107.766 265.38C107.766 264.272 107.11 263.466 106.011 263.283V263.215C106.893 262.946 107.443 262.222 107.443 261.238C107.443 260.002 106.467 258.902 104.852 258.902C103.343 258.902 102.09 259.831 102.039 261.204H103.062C103.1 260.334 103.927 259.823 104.835 259.823C105.798 259.823 106.42 260.407 106.42 261.289C106.42 262.209 105.7 262.806 104.664 262.806H103.965V263.743H104.664C105.989 263.743 106.727 264.417 106.727 265.38C106.727 266.304 105.921 266.931 104.801 266.931C103.791 266.931 102.989 266.411 102.926 265.567H101.852C101.916 266.939 103.126 267.868 104.818 267.868ZM112.553 267.868C114.479 267.868 115.587 266.236 115.587 263.385C115.587 260.556 114.462 258.902 112.553 258.902C110.644 258.902 109.519 260.556 109.519 263.385C109.519 266.236 110.627 267.868 112.553 267.868ZM112.553 266.931C111.283 266.931 110.542 265.657 110.542 263.385C110.542 261.118 111.292 259.823 112.553 259.823C113.814 259.823 114.564 261.118 114.564 263.385C114.564 265.657 113.823 266.931 112.553 266.931Z" fill="black"/>
<path d="M165.511 259.022H164.454L162.272 260.471V261.544L164.403 260.13H164.454V267.749H165.511V259.022Z" fill="#747474"/>
<path d="M217.274 267.749H222.78V266.812H218.723V266.743L220.683 264.647C222.183 263.04 222.627 262.29 222.627 261.323C222.627 259.976 221.536 258.902 220.002 258.902C218.472 258.902 217.308 259.942 217.308 261.476H218.314C218.314 260.483 218.958 259.823 219.968 259.823C220.914 259.823 221.638 260.402 221.638 261.323C221.638 262.128 221.165 262.725 220.155 263.829L217.274 266.982V267.749Z" fill="#747474"/>
<path d="M275.702 267.868C277.394 267.868 278.651 266.807 278.651 265.38C278.651 264.272 277.995 263.466 276.896 263.283V263.215C277.778 262.946 278.327 262.222 278.327 261.238C278.327 260.002 277.352 258.902 275.736 258.902C274.228 258.902 272.975 259.831 272.924 261.204H273.947C273.985 260.334 274.812 259.823 275.719 259.823C276.682 259.823 277.305 260.407 277.305 261.289C277.305 262.209 276.584 262.806 275.549 262.806H274.85V263.743H275.549C276.874 263.743 277.611 264.417 277.611 265.38C277.611 266.304 276.806 266.931 275.685 266.931C274.675 266.931 273.874 266.411 273.81 265.567H272.736C272.8 266.939 274.011 267.868 275.702 267.868Z" fill="#747474"/>
<path d="M328.182 265.959H332.29V267.749H333.295V265.959H334.488V265.022H333.295V259.022H332.017L328.182 265.09V265.959ZM332.29 265.022H329.324V264.954L332.221 260.368H332.29V265.022Z" fill="#747474"/>
<path d="M386.968 267.868C388.629 267.868 389.848 266.641 389.848 264.971C389.848 263.279 388.672 262.039 387.07 262.039C386.482 262.039 385.911 262.248 385.553 262.533H385.502L385.808 259.959H389.456V259.022H384.922L384.394 263.317L385.382 263.437C385.744 263.177 386.362 262.989 386.899 262.993C388.012 263.002 388.825 263.846 388.825 264.988C388.825 266.108 388.041 266.931 386.968 266.931C386.073 266.931 385.361 266.356 385.28 265.567H384.257C384.321 266.897 385.468 267.868 386.968 267.868Z" fill="#747474"/>
<defs>
<filter id="filter0_d" x="170" y="143.149" width="100" height="100" filterUnits="userSpaceOnUse" color-interpolation-filters="sRGB">
<feFlood flood-opacity="0" result="BackgroundImageFix"/>
<feColorMatrix in="SourceAlpha" type="matrix" values="0 0 0 0 0 0 0 0 0 0 0 0 0 0 0 0 0 0 127 0" result="hardAlpha"/>
<feOffset/>
<feGaussianBlur stdDeviation="15"/>
<feColorMatrix type="matrix" values="0 0 0 0 0.482353 0 0 0 0 0.380392 0 0 0 0 1 0 0 0 0.2 0"/>
<feBlend mode="normal" in2="BackgroundImageFix" result="effect1_dropShadow"/>
<feBlend mode="normal" in="SourceGraphic" in2="effect1_dropShadow" result="shape"/>
</filter>
</defs>
</svg>
