<svg width="441" height="194" viewBox="0 0 441 194" fill="none" xmlns="http://www.w3.org/2000/svg">
<rect x="0.064209" y="0.00146484" width="440" height="193" rx="14" fill="#F5F5F7"/>
<path d="M26.5813 80.7744H31.9719V82.001H25.0735V70.626H26.5813V80.7744ZM33.0735 77.6963C33.0735 76.8682 33.2349 76.1234 33.5579 75.4619C33.886 74.8005 34.3391 74.29 34.9172 73.9307C35.5006 73.5713 36.1646 73.3916 36.9094 73.3916C38.0605 73.3916 38.9902 73.79 39.6985 74.5869C40.412 75.3838 40.7688 76.4437 40.7688 77.7666V77.8682C40.7688 78.6911 40.6099 79.4307 40.2922 80.0869C39.9797 80.738 39.5292 81.2458 38.9407 81.6104C38.3573 81.9749 37.6855 82.1572 36.925 82.1572C35.7792 82.1572 34.8495 81.7588 34.136 80.9619C33.4277 80.165 33.0735 79.1104 33.0735 77.7979V77.6963ZM34.5266 77.8682C34.5266 78.8057 34.7428 79.5583 35.175 80.126C35.6125 80.6937 36.1959 80.9775 36.925 80.9775C37.6594 80.9775 38.2428 80.6911 38.675 80.1182C39.1073 79.54 39.3235 78.7327 39.3235 77.6963C39.3235 76.7692 39.1021 76.0192 38.6594 75.4463C38.2219 74.8682 37.6386 74.5791 36.9094 74.5791C36.1959 74.5791 35.6204 74.863 35.1829 75.4307C34.7454 75.9984 34.5266 76.8109 34.5266 77.8682ZM46.6672 74.8447C46.4485 74.8083 46.2115 74.79 45.9563 74.79C45.0084 74.79 44.3652 75.1937 44.0266 76.001V82.001H42.5813V73.5479H43.9875L44.011 74.5244C44.4849 73.7692 45.1568 73.3916 46.0266 73.3916C46.3079 73.3916 46.5214 73.4281 46.6672 73.501V74.8447ZM51.3547 82.1572C50.2089 82.1572 49.2766 81.7822 48.5579 81.0322C47.8391 80.277 47.4797 79.2692 47.4797 78.0088V77.7432C47.4797 76.9046 47.6386 76.1572 47.9563 75.501C48.2792 74.8395 48.7271 74.3239 49.3 73.9541C49.8782 73.5791 50.5032 73.3916 51.175 73.3916C52.274 73.3916 53.1282 73.7536 53.7375 74.4775C54.3469 75.2015 54.6516 76.238 54.6516 77.5869V78.1885H48.925C48.9459 79.0218 49.1881 79.6963 49.6516 80.2119C50.1204 80.7223 50.7141 80.9775 51.4329 80.9775C51.9433 80.9775 52.3756 80.8734 52.7297 80.665C53.0839 80.4567 53.3938 80.1807 53.6594 79.8369L54.5422 80.5244C53.8339 81.613 52.7714 82.1572 51.3547 82.1572ZM51.175 74.5791C50.5917 74.5791 50.1021 74.7926 49.7063 75.2197C49.3105 75.6416 49.0657 76.2354 48.9719 77.001H53.2063V76.8916C53.1646 76.1572 52.9667 75.5895 52.6125 75.1885C52.2584 74.7822 51.7792 74.5791 51.175 74.5791ZM57.6907 73.5479L57.7297 74.4854C58.3495 73.7562 59.1855 73.3916 60.2375 73.3916C61.4198 73.3916 62.2245 73.8447 62.6516 74.751C62.9329 74.3447 63.2974 74.0166 63.7454 73.7666C64.1985 73.5166 64.7323 73.3916 65.3469 73.3916C67.2011 73.3916 68.1438 74.3734 68.175 76.3369V82.001H66.7297V76.4229C66.7297 75.8187 66.5917 75.3682 66.3157 75.0713C66.0396 74.7692 65.5761 74.6182 64.925 74.6182C64.3886 74.6182 63.9433 74.7796 63.5891 75.1025C63.2349 75.4202 63.0292 75.8499 62.9719 76.3916V82.001H61.5188V76.4619C61.5188 75.2327 60.9172 74.6182 59.7141 74.6182C58.7662 74.6182 58.1178 75.0218 57.7688 75.8291V82.001H56.3235V73.5479H57.6907ZM75.9016 82.001H74.4563V73.5479H75.9016V82.001ZM74.3391 71.3057C74.3391 71.0713 74.4094 70.8734 74.55 70.7119C74.6959 70.5505 74.9094 70.4697 75.1907 70.4697C75.4719 70.4697 75.6855 70.5505 75.8313 70.7119C75.9771 70.8734 76.05 71.0713 76.05 71.3057C76.05 71.54 75.9771 71.7354 75.8313 71.8916C75.6855 72.0479 75.4719 72.126 75.1907 72.126C74.9094 72.126 74.6959 72.0479 74.55 71.8916C74.4094 71.7354 74.3391 71.54 74.3391 71.3057ZM85.3625 77.8682C85.3625 79.1546 85.0683 80.1911 84.4797 80.9775C83.8912 81.764 83.0943 82.1572 82.0891 82.1572C81.0631 82.1572 80.2558 81.8317 79.6672 81.1807V85.251H78.2219V73.5479H79.5422L79.6125 74.4854C80.2011 73.7562 81.0188 73.3916 82.0657 73.3916C83.0813 73.3916 83.8834 73.7744 84.4719 74.54C85.0657 75.3057 85.3625 76.3708 85.3625 77.7354V77.8682ZM83.9172 77.7041C83.9172 76.751 83.7141 75.9984 83.3079 75.4463C82.9016 74.8942 82.3443 74.6182 81.636 74.6182C80.761 74.6182 80.1047 75.0062 79.6672 75.7822V79.8213C80.0995 80.5921 80.761 80.9775 81.6516 80.9775C82.3443 80.9775 82.8938 80.7041 83.3 80.1572C83.7115 79.6051 83.9172 78.7874 83.9172 77.7041ZM92.1282 79.7588C92.1282 79.3682 91.9797 79.0661 91.6829 78.8525C91.3912 78.6338 90.8782 78.4463 90.1438 78.29C89.4146 78.1338 88.8339 77.9463 88.4016 77.7275C87.9745 77.5088 87.6568 77.2484 87.4485 76.9463C87.2454 76.6442 87.1438 76.2848 87.1438 75.8682C87.1438 75.1755 87.4355 74.5895 88.0188 74.1104C88.6073 73.6312 89.3573 73.3916 90.2688 73.3916C91.2271 73.3916 92.0032 73.639 92.5969 74.1338C93.1959 74.6286 93.4954 75.2614 93.4954 76.0322H92.0422C92.0422 75.6364 91.873 75.2952 91.5344 75.0088C91.2011 74.7223 90.7792 74.5791 90.2688 74.5791C89.7428 74.5791 89.3313 74.6937 89.0344 74.9229C88.7375 75.152 88.5891 75.4515 88.5891 75.8213C88.5891 76.1702 88.7271 76.4333 89.0032 76.6104C89.2792 76.7874 89.7766 76.9567 90.4954 77.1182C91.2193 77.2796 91.8053 77.4723 92.2532 77.6963C92.7011 77.9202 93.0318 78.1911 93.2454 78.5088C93.4641 78.8213 93.5735 79.2041 93.5735 79.6572C93.5735 80.4124 93.2714 81.0192 92.6672 81.4775C92.0631 81.9307 91.2792 82.1572 90.3157 82.1572C89.6386 82.1572 89.0396 82.0374 88.5188 81.7979C87.998 81.5583 87.5891 81.2249 87.2922 80.7979C87.0006 80.3656 86.8547 79.8994 86.8547 79.3994H88.3C88.3261 79.8838 88.5188 80.2692 88.8782 80.5557C89.2428 80.8369 89.7219 80.9775 90.3157 80.9775C90.8625 80.9775 91.3 80.8682 91.6282 80.6494C91.9615 80.4255 92.1282 80.1286 92.1282 79.7588ZM100.675 81.165C100.113 81.8265 99.287 82.1572 98.1985 82.1572C97.2974 82.1572 96.6099 81.8968 96.136 81.376C95.6672 80.8499 95.4303 80.0739 95.425 79.0479V73.5479H96.8704V79.0088C96.8704 80.29 97.3912 80.9307 98.4329 80.9307C99.537 80.9307 100.271 80.5192 100.636 79.6963V73.5479H102.081V82.001H100.706L100.675 81.165ZM105.644 73.5479L105.683 74.4854C106.303 73.7562 107.139 73.3916 108.191 73.3916C109.373 73.3916 110.178 73.8447 110.605 74.751C110.886 74.3447 111.251 74.0166 111.698 73.7666C112.152 73.5166 112.685 73.3916 113.3 73.3916C115.154 73.3916 116.097 74.3734 116.128 76.3369V82.001H114.683V76.4229C114.683 75.8187 114.545 75.3682 114.269 75.0713C113.993 74.7692 113.529 74.6182 112.878 74.6182C112.342 74.6182 111.896 74.7796 111.542 75.1025C111.188 75.4202 110.982 75.8499 110.925 76.3916V82.001H109.472V76.4619C109.472 75.2327 108.87 74.6182 107.667 74.6182C106.719 74.6182 106.071 75.0218 105.722 75.8291V82.001H104.277V73.5479H105.644ZM123.855 82.001H122.409V70.001H123.855V82.001ZM125.792 77.6963C125.792 76.8682 125.954 76.1234 126.277 75.4619C126.605 74.8005 127.058 74.29 127.636 73.9307C128.219 73.5713 128.883 73.3916 129.628 73.3916C130.779 73.3916 131.709 73.79 132.417 74.5869C133.131 75.3838 133.488 76.4437 133.488 77.7666V77.8682C133.488 78.6911 133.329 79.4307 133.011 80.0869C132.698 80.738 132.248 81.2458 131.659 81.6104C131.076 81.9749 130.404 82.1572 129.644 82.1572C128.498 82.1572 127.568 81.7588 126.855 80.9619C126.146 80.165 125.792 79.1104 125.792 77.7979V77.6963ZM127.245 77.8682C127.245 78.8057 127.462 79.5583 127.894 80.126C128.331 80.6937 128.915 80.9775 129.644 80.9775C130.378 80.9775 130.962 80.6911 131.394 80.1182C131.826 79.54 132.042 78.7327 132.042 77.6963C132.042 76.7692 131.821 76.0192 131.378 75.4463C130.941 74.8682 130.357 74.5791 129.628 74.5791C128.915 74.5791 128.339 74.863 127.902 75.4307C127.464 75.9984 127.245 76.8109 127.245 77.8682ZM139.386 74.8447C139.167 74.8083 138.93 74.79 138.675 74.79C137.727 74.79 137.084 75.1937 136.745 76.001V82.001H135.3V73.5479H136.706L136.73 74.5244C137.204 73.7692 137.876 73.3916 138.745 73.3916C139.027 73.3916 139.24 73.4281 139.386 73.501V74.8447ZM144.073 82.1572C142.928 82.1572 141.995 81.7822 141.277 81.0322C140.558 80.277 140.198 79.2692 140.198 78.0088V77.7432C140.198 76.9046 140.357 76.1572 140.675 75.501C140.998 74.8395 141.446 74.3239 142.019 73.9541C142.597 73.5791 143.222 73.3916 143.894 73.3916C144.993 73.3916 145.847 73.7536 146.456 74.4775C147.066 75.2015 147.37 76.238 147.37 77.5869V78.1885H141.644C141.665 79.0218 141.907 79.6963 142.37 80.2119C142.839 80.7223 143.433 80.9775 144.152 80.9775C144.662 80.9775 145.094 80.8734 145.448 80.665C145.803 80.4567 146.113 80.1807 146.378 79.8369L147.261 80.5244C146.553 81.613 145.49 82.1572 144.073 82.1572ZM143.894 74.5791C143.31 74.5791 142.821 74.7926 142.425 75.2197C142.029 75.6416 141.784 76.2354 141.691 77.001H145.925V76.8916C145.883 76.1572 145.685 75.5895 145.331 75.1885C144.977 74.7822 144.498 74.5791 143.894 74.5791ZM150.409 73.5479L150.448 74.4854C151.068 73.7562 151.904 73.3916 152.956 73.3916C154.139 73.3916 154.943 73.8447 155.37 74.751C155.652 74.3447 156.016 74.0166 156.464 73.7666C156.917 73.5166 157.451 73.3916 158.066 73.3916C159.92 73.3916 160.863 74.3734 160.894 76.3369V82.001H159.448V76.4229C159.448 75.8187 159.31 75.3682 159.034 75.0713C158.758 74.7692 158.295 74.6182 157.644 74.6182C157.107 74.6182 156.662 74.7796 156.308 75.1025C155.954 75.4202 155.748 75.8499 155.691 76.3916V82.001H154.238V76.4619C154.238 75.2327 153.636 74.6182 152.433 74.6182C151.485 74.6182 150.837 75.0218 150.488 75.8291V82.001H149.042V73.5479H150.409ZM168.62 82.001H167.175V73.5479H168.62V82.001ZM167.058 71.3057C167.058 71.0713 167.128 70.8734 167.269 70.7119C167.415 70.5505 167.628 70.4697 167.909 70.4697C168.191 70.4697 168.404 70.5505 168.55 70.7119C168.696 70.8734 168.769 71.0713 168.769 71.3057C168.769 71.54 168.696 71.7354 168.55 71.8916C168.404 72.0479 168.191 72.126 167.909 72.126C167.628 72.126 167.415 72.0479 167.269 71.8916C167.128 71.7354 167.058 71.54 167.058 71.3057ZM178.081 77.8682C178.081 79.1546 177.787 80.1911 177.198 80.9775C176.61 81.764 175.813 82.1572 174.808 82.1572C173.782 82.1572 172.975 81.8317 172.386 81.1807V85.251H170.941V73.5479H172.261L172.331 74.4854C172.92 73.7562 173.738 73.3916 174.784 73.3916C175.8 73.3916 176.602 73.7744 177.191 74.54C177.784 75.3057 178.081 76.3708 178.081 77.7354V77.8682ZM176.636 77.7041C176.636 76.751 176.433 75.9984 176.027 75.4463C175.62 74.8942 175.063 74.6182 174.355 74.6182C173.48 74.6182 172.823 75.0062 172.386 75.7822V79.8213C172.818 80.5921 173.48 80.9775 174.37 80.9775C175.063 80.9775 175.613 80.7041 176.019 80.1572C176.43 79.6051 176.636 78.7874 176.636 77.7041ZM184.847 79.7588C184.847 79.3682 184.698 79.0661 184.402 78.8525C184.11 78.6338 183.597 78.4463 182.863 78.29C182.133 78.1338 181.553 77.9463 181.12 77.7275C180.693 77.5088 180.376 77.2484 180.167 76.9463C179.964 76.6442 179.863 76.2848 179.863 75.8682C179.863 75.1755 180.154 74.5895 180.738 74.1104C181.326 73.6312 182.076 73.3916 182.988 73.3916C183.946 73.3916 184.722 73.639 185.316 74.1338C185.915 74.6286 186.214 75.2614 186.214 76.0322H184.761C184.761 75.6364 184.592 75.2952 184.253 75.0088C183.92 74.7223 183.498 74.5791 182.988 74.5791C182.462 74.5791 182.05 74.6937 181.753 74.9229C181.456 75.152 181.308 75.4515 181.308 75.8213C181.308 76.1702 181.446 76.4333 181.722 76.6104C181.998 76.7874 182.495 76.9567 183.214 77.1182C183.938 77.2796 184.524 77.4723 184.972 77.6963C185.42 77.9202 185.751 78.1911 185.964 78.5088C186.183 78.8213 186.292 79.2041 186.292 79.6572C186.292 80.4124 185.99 81.0192 185.386 81.4775C184.782 81.9307 183.998 82.1572 183.034 82.1572C182.357 82.1572 181.758 82.0374 181.238 81.7979C180.717 81.5583 180.308 81.2249 180.011 80.7979C179.719 80.3656 179.573 79.8994 179.573 79.3994H181.019C181.045 79.8838 181.238 80.2692 181.597 80.5557C181.962 80.8369 182.441 80.9775 183.034 80.9775C183.581 80.9775 184.019 80.8682 184.347 80.6494C184.68 80.4255 184.847 80.1286 184.847 79.7588ZM193.394 81.165C192.831 81.8265 192.006 82.1572 190.917 82.1572C190.016 82.1572 189.329 81.8968 188.855 81.376C188.386 80.8499 188.149 80.0739 188.144 79.0479V73.5479H189.589V79.0088C189.589 80.29 190.11 80.9307 191.152 80.9307C192.256 80.9307 192.99 80.5192 193.355 79.6963V73.5479H194.8V82.001H193.425L193.394 81.165ZM198.363 73.5479L198.402 74.4854C199.021 73.7562 199.857 73.3916 200.909 73.3916C202.092 73.3916 202.896 73.8447 203.323 74.751C203.605 74.3447 203.969 74.0166 204.417 73.7666C204.87 73.5166 205.404 73.3916 206.019 73.3916C207.873 73.3916 208.816 74.3734 208.847 76.3369V82.001H207.402V76.4229C207.402 75.8187 207.264 75.3682 206.988 75.0713C206.712 74.7692 206.248 74.6182 205.597 74.6182C205.06 74.6182 204.615 74.7796 204.261 75.1025C203.907 75.4202 203.701 75.8499 203.644 76.3916V82.001H202.191V76.4619C202.191 75.2327 201.589 74.6182 200.386 74.6182C199.438 74.6182 198.79 75.0218 198.441 75.8291V82.001H196.995V73.5479H198.363ZM26.5813 104.774H31.9719V106.001H25.0735V94.626H26.5813V104.774ZM33.0735 101.696C33.0735 100.868 33.2349 100.123 33.5579 99.4619C33.886 98.8005 34.3391 98.29 34.9172 97.9307C35.5006 97.5713 36.1646 97.3916 36.9094 97.3916C38.0605 97.3916 38.9902 97.79 39.6985 98.5869C40.412 99.3838 40.7688 100.444 40.7688 101.767V101.868C40.7688 102.691 40.6099 103.431 40.2922 104.087C39.9797 104.738 39.5292 105.246 38.9407 105.61C38.3573 105.975 37.6855 106.157 36.925 106.157C35.7792 106.157 34.8495 105.759 34.136 104.962C33.4277 104.165 33.0735 103.11 33.0735 101.798V101.696ZM34.5266 101.868C34.5266 102.806 34.7428 103.558 35.175 104.126C35.6125 104.694 36.1959 104.978 36.925 104.978C37.6594 104.978 38.2428 104.691 38.675 104.118C39.1073 103.54 39.3235 102.733 39.3235 101.696C39.3235 100.769 39.1021 100.019 38.6594 99.4463C38.2219 98.8682 37.6386 98.5791 36.9094 98.5791C36.1959 98.5791 35.6204 98.863 35.1829 99.4307C34.7454 99.9984 34.5266 100.811 34.5266 101.868ZM46.6672 98.8447C46.4485 98.8083 46.2115 98.79 45.9563 98.79C45.0084 98.79 44.3652 99.1937 44.0266 100.001V106.001H42.5813V97.5479H43.9875L44.011 98.5244C44.4849 97.7692 45.1568 97.3916 46.0266 97.3916C46.3079 97.3916 46.5214 97.4281 46.6672 97.501V98.8447ZM51.3547 106.157C50.2089 106.157 49.2766 105.782 48.5579 105.032C47.8391 104.277 47.4797 103.269 47.4797 102.009V101.743C47.4797 100.905 47.6386 100.157 47.9563 99.501C48.2792 98.8395 48.7271 98.3239 49.3 97.9541C49.8782 97.5791 50.5032 97.3916 51.175 97.3916C52.274 97.3916 53.1282 97.7536 53.7375 98.4775C54.3469 99.2015 54.6516 100.238 54.6516 101.587V102.188H48.925C48.9459 103.022 49.1881 103.696 49.6516 104.212C50.1204 104.722 50.7141 104.978 51.4329 104.978C51.9433 104.978 52.3756 104.873 52.7297 104.665C53.0839 104.457 53.3938 104.181 53.6594 103.837L54.5422 104.524C53.8339 105.613 52.7714 106.157 51.3547 106.157ZM51.175 98.5791C50.5917 98.5791 50.1021 98.7926 49.7063 99.2197C49.3105 99.6416 49.0657 100.235 48.9719 101.001H53.2063V100.892C53.1646 100.157 52.9667 99.5895 52.6125 99.1885C52.2584 98.7822 51.7792 98.5791 51.175 98.5791ZM57.6907 97.5479L57.7297 98.4854C58.3495 97.7562 59.1855 97.3916 60.2375 97.3916C61.4198 97.3916 62.2245 97.8447 62.6516 98.751C62.9329 98.3447 63.2974 98.0166 63.7454 97.7666C64.1985 97.5166 64.7323 97.3916 65.3469 97.3916C67.2011 97.3916 68.1438 98.3734 68.175 100.337V106.001H66.7297V100.423C66.7297 99.8187 66.5917 99.3682 66.3157 99.0713C66.0396 98.7692 65.5761 98.6182 64.925 98.6182C64.3886 98.6182 63.9433 98.7796 63.5891 99.1025C63.2349 99.4202 63.0292 99.8499 62.9719 100.392V106.001H61.5188V100.462C61.5188 99.2327 60.9172 98.6182 59.7141 98.6182C58.7662 98.6182 58.1178 99.0218 57.7688 99.8291V106.001H56.3235V97.5479H57.6907ZM75.9016 106.001H74.4563V97.5479H75.9016V106.001ZM74.3391 95.3057C74.3391 95.0713 74.4094 94.8734 74.55 94.7119C74.6959 94.5505 74.9094 94.4697 75.1907 94.4697C75.4719 94.4697 75.6855 94.5505 75.8313 94.7119C75.9771 94.8734 76.05 95.0713 76.05 95.3057C76.05 95.54 75.9771 95.7354 75.8313 95.8916C75.6855 96.0479 75.4719 96.126 75.1907 96.126C74.9094 96.126 74.6959 96.0479 74.55 95.8916C74.4094 95.7354 74.3391 95.54 74.3391 95.3057ZM85.3625 101.868C85.3625 103.155 85.0683 104.191 84.4797 104.978C83.8912 105.764 83.0943 106.157 82.0891 106.157C81.0631 106.157 80.2558 105.832 79.6672 105.181V109.251H78.2219V97.5479H79.5422L79.6125 98.4854C80.2011 97.7562 81.0188 97.3916 82.0657 97.3916C83.0813 97.3916 83.8834 97.7744 84.4719 98.54C85.0657 99.3057 85.3625 100.371 85.3625 101.735V101.868ZM83.9172 101.704C83.9172 100.751 83.7141 99.9984 83.3079 99.4463C82.9016 98.8942 82.3443 98.6182 81.636 98.6182C80.761 98.6182 80.1047 99.0062 79.6672 99.7822V103.821C80.0995 104.592 80.761 104.978 81.6516 104.978C82.3443 104.978 82.8938 104.704 83.3 104.157C83.7115 103.605 83.9172 102.787 83.9172 101.704ZM92.1282 103.759C92.1282 103.368 91.9797 103.066 91.6829 102.853C91.3912 102.634 90.8782 102.446 90.1438 102.29C89.4146 102.134 88.8339 101.946 88.4016 101.728C87.9745 101.509 87.6568 101.248 87.4485 100.946C87.2454 100.644 87.1438 100.285 87.1438 99.8682C87.1438 99.1755 87.4355 98.5895 88.0188 98.1104C88.6073 97.6312 89.3573 97.3916 90.2688 97.3916C91.2271 97.3916 92.0032 97.639 92.5969 98.1338C93.1959 98.6286 93.4954 99.2614 93.4954 100.032H92.0422C92.0422 99.6364 91.873 99.2952 91.5344 99.0088C91.2011 98.7223 90.7792 98.5791 90.2688 98.5791C89.7428 98.5791 89.3313 98.6937 89.0344 98.9229C88.7375 99.152 88.5891 99.4515 88.5891 99.8213C88.5891 100.17 88.7271 100.433 89.0032 100.61C89.2792 100.787 89.7766 100.957 90.4954 101.118C91.2193 101.28 91.8053 101.472 92.2532 101.696C92.7011 101.92 93.0318 102.191 93.2454 102.509C93.4641 102.821 93.5735 103.204 93.5735 103.657C93.5735 104.412 93.2714 105.019 92.6672 105.478C92.0631 105.931 91.2792 106.157 90.3157 106.157C89.6386 106.157 89.0396 106.037 88.5188 105.798C87.998 105.558 87.5891 105.225 87.2922 104.798C87.0006 104.366 86.8547 103.899 86.8547 103.399H88.3C88.3261 103.884 88.5188 104.269 88.8782 104.556C89.2428 104.837 89.7219 104.978 90.3157 104.978C90.8625 104.978 91.3 104.868 91.6282 104.649C91.9615 104.425 92.1282 104.129 92.1282 103.759ZM100.675 105.165C100.113 105.826 99.287 106.157 98.1985 106.157C97.2974 106.157 96.6099 105.897 96.136 105.376C95.6672 104.85 95.4303 104.074 95.425 103.048V97.5479H96.8704V103.009C96.8704 104.29 97.3912 104.931 98.4329 104.931C99.537 104.931 100.271 104.519 100.636 103.696V97.5479H102.081V106.001H100.706L100.675 105.165ZM105.644 97.5479L105.683 98.4854C106.303 97.7562 107.139 97.3916 108.191 97.3916C109.373 97.3916 110.178 97.8447 110.605 98.751C110.886 98.3447 111.251 98.0166 111.698 97.7666C112.152 97.5166 112.685 97.3916 113.3 97.3916C115.154 97.3916 116.097 98.3734 116.128 100.337V106.001H114.683V100.423C114.683 99.8187 114.545 99.3682 114.269 99.0713C113.993 98.7692 113.529 98.6182 112.878 98.6182C112.342 98.6182 111.896 98.7796 111.542 99.1025C111.188 99.4202 110.982 99.8499 110.925 100.392V106.001H109.472V100.462C109.472 99.2327 108.87 98.6182 107.667 98.6182C106.719 98.6182 106.071 99.0218 105.722 99.8291V106.001H104.277V97.5479H105.644ZM123.855 106.001H122.409V94.001H123.855V106.001ZM125.792 101.696C125.792 100.868 125.954 100.123 126.277 99.4619C126.605 98.8005 127.058 98.29 127.636 97.9307C128.219 97.5713 128.883 97.3916 129.628 97.3916C130.779 97.3916 131.709 97.79 132.417 98.5869C133.131 99.3838 133.488 100.444 133.488 101.767V101.868C133.488 102.691 133.329 103.431 133.011 104.087C132.698 104.738 132.248 105.246 131.659 105.61C131.076 105.975 130.404 106.157 129.644 106.157C128.498 106.157 127.568 105.759 126.855 104.962C126.146 104.165 125.792 103.11 125.792 101.798V101.696ZM127.245 101.868C127.245 102.806 127.462 103.558 127.894 104.126C128.331 104.694 128.915 104.978 129.644 104.978C130.378 104.978 130.962 104.691 131.394 104.118C131.826 103.54 132.042 102.733 132.042 101.696C132.042 100.769 131.821 100.019 131.378 99.4463C130.941 98.8682 130.357 98.5791 129.628 98.5791C128.915 98.5791 128.339 98.863 127.902 99.4307C127.464 99.9984 127.245 100.811 127.245 101.868ZM139.386 98.8447C139.167 98.8083 138.93 98.79 138.675 98.79C137.727 98.79 137.084 99.1937 136.745 100.001V106.001H135.3V97.5479H136.706L136.73 98.5244C137.204 97.7692 137.876 97.3916 138.745 97.3916C139.027 97.3916 139.24 97.4281 139.386 97.501V98.8447ZM144.073 106.157C142.928 106.157 141.995 105.782 141.277 105.032C140.558 104.277 140.198 103.269 140.198 102.009V101.743C140.198 100.905 140.357 100.157 140.675 99.501C140.998 98.8395 141.446 98.3239 142.019 97.9541C142.597 97.5791 143.222 97.3916 143.894 97.3916C144.993 97.3916 145.847 97.7536 146.456 98.4775C147.066 99.2015 147.37 100.238 147.37 101.587V102.188H141.644C141.665 103.022 141.907 103.696 142.37 104.212C142.839 104.722 143.433 104.978 144.152 104.978C144.662 104.978 145.094 104.873 145.448 104.665C145.803 104.457 146.113 104.181 146.378 103.837L147.261 104.524C146.553 105.613 145.49 106.157 144.073 106.157ZM143.894 98.5791C143.31 98.5791 142.821 98.7926 142.425 99.2197C142.029 99.6416 141.784 100.235 141.691 101.001H145.925V100.892C145.883 100.157 145.685 99.5895 145.331 99.1885C144.977 98.7822 144.498 98.5791 143.894 98.5791ZM150.409 97.5479L150.448 98.4854C151.068 97.7562 151.904 97.3916 152.956 97.3916C154.139 97.3916 154.943 97.8447 155.37 98.751C155.652 98.3447 156.016 98.0166 156.464 97.7666C156.917 97.5166 157.451 97.3916 158.066 97.3916C159.92 97.3916 160.863 98.3734 160.894 100.337V106.001H159.448V100.423C159.448 99.8187 159.31 99.3682 159.034 99.0713C158.758 98.7692 158.295 98.6182 157.644 98.6182C157.107 98.6182 156.662 98.7796 156.308 99.1025C155.954 99.4202 155.748 99.8499 155.691 100.392V106.001H154.238V100.462C154.238 99.2327 153.636 98.6182 152.433 98.6182C151.485 98.6182 150.837 99.0218 150.488 99.8291V106.001H149.042V97.5479H150.409ZM168.62 106.001H167.175V97.5479H168.62V106.001ZM167.058 95.3057C167.058 95.0713 167.128 94.8734 167.269 94.7119C167.415 94.5505 167.628 94.4697 167.909 94.4697C168.191 94.4697 168.404 94.5505 168.55 94.7119C168.696 94.8734 168.769 95.0713 168.769 95.3057C168.769 95.54 168.696 95.7354 168.55 95.8916C168.404 96.0479 168.191 96.126 167.909 96.126C167.628 96.126 167.415 96.0479 167.269 95.8916C167.128 95.7354 167.058 95.54 167.058 95.3057ZM178.081 101.868C178.081 103.155 177.787 104.191 177.198 104.978C176.61 105.764 175.813 106.157 174.808 106.157C173.782 106.157 172.975 105.832 172.386 105.181V109.251H170.941V97.5479H172.261L172.331 98.4854C172.92 97.7562 173.738 97.3916 174.784 97.3916C175.8 97.3916 176.602 97.7744 177.191 98.54C177.784 99.3057 178.081 100.371 178.081 101.735V101.868ZM176.636 101.704C176.636 100.751 176.433 99.9984 176.027 99.4463C175.62 98.8942 175.063 98.6182 174.355 98.6182C173.48 98.6182 172.823 99.0062 172.386 99.7822V103.821C172.818 104.592 173.48 104.978 174.37 104.978C175.063 104.978 175.613 104.704 176.019 104.157C176.43 103.605 176.636 102.787 176.636 101.704ZM184.847 103.759C184.847 103.368 184.698 103.066 184.402 102.853C184.11 102.634 183.597 102.446 182.863 102.29C182.133 102.134 181.553 101.946 181.12 101.728C180.693 101.509 180.376 101.248 180.167 100.946C179.964 100.644 179.863 100.285 179.863 99.8682C179.863 99.1755 180.154 98.5895 180.738 98.1104C181.326 97.6312 182.076 97.3916 182.988 97.3916C183.946 97.3916 184.722 97.639 185.316 98.1338C185.915 98.6286 186.214 99.2614 186.214 100.032H184.761C184.761 99.6364 184.592 99.2952 184.253 99.0088C183.92 98.7223 183.498 98.5791 182.988 98.5791C182.462 98.5791 182.05 98.6937 181.753 98.9229C181.456 99.152 181.308 99.4515 181.308 99.8213C181.308 100.17 181.446 100.433 181.722 100.61C181.998 100.787 182.495 100.957 183.214 101.118C183.938 101.28 184.524 101.472 184.972 101.696C185.42 101.92 185.751 102.191 185.964 102.509C186.183 102.821 186.292 103.204 186.292 103.657C186.292 104.412 185.99 105.019 185.386 105.478C184.782 105.931 183.998 106.157 183.034 106.157C182.357 106.157 181.758 106.037 181.238 105.798C180.717 105.558 180.308 105.225 180.011 104.798C179.719 104.366 179.573 103.899 179.573 103.399H181.019C181.045 103.884 181.238 104.269 181.597 104.556C181.962 104.837 182.441 104.978 183.034 104.978C183.581 104.978 184.019 104.868 184.347 104.649C184.68 104.425 184.847 104.129 184.847 103.759ZM193.394 105.165C192.831 105.826 192.006 106.157 190.917 106.157C190.016 106.157 189.329 105.897 188.855 105.376C188.386 104.85 188.149 104.074 188.144 103.048V97.5479H189.589V103.009C189.589 104.29 190.11 104.931 191.152 104.931C192.256 104.931 192.99 104.519 193.355 103.696V97.5479H194.8V106.001H193.425L193.394 105.165ZM198.363 97.5479L198.402 98.4854C199.021 97.7562 199.857 97.3916 200.909 97.3916C202.092 97.3916 202.896 97.8447 203.323 98.751C203.605 98.3447 203.969 98.0166 204.417 97.7666C204.87 97.5166 205.404 97.3916 206.019 97.3916C207.873 97.3916 208.816 98.3734 208.847 100.337V106.001H207.402V100.423C207.402 99.8187 207.264 99.3682 206.988 99.0713C206.712 98.7692 206.248 98.6182 205.597 98.6182C205.06 98.6182 204.615 98.7796 204.261 99.1025C203.907 99.4202 203.701 99.8499 203.644 100.392V106.001H202.191V100.462C202.191 99.2327 201.589 98.6182 200.386 98.6182C199.438 98.6182 198.79 99.0218 198.441 99.8291V106.001H196.995V97.5479H198.363Z" fill="black"/>
<rect x="23.7532" y="137.224" width="120" height="40" rx="8" fill="#F37172"/>
<path d="M27.5452 49.1907C26.8572 49.1907 26.3132 48.9907 25.9132 48.5907C25.5132 48.1907 25.3132 47.6467 25.3132 46.9587V34.5507C25.4892 34.5187 25.7692 34.4787 26.1532 34.4307C26.5372 34.3667 26.9052 34.3347 27.2572 34.3347C27.6252 34.3347 27.9452 34.3667 28.2172 34.4307C28.5052 34.4787 28.7452 34.5747 28.9372 34.7187C29.1292 34.8627 29.2732 35.0627 29.3692 35.3187C29.4652 35.5747 29.5132 35.9107 29.5132 36.3267V45.8067H35.0092C35.1212 45.9827 35.2252 46.2227 35.3212 46.5267C35.4172 46.8147 35.4652 47.1187 35.4652 47.4387C35.4652 48.0787 35.3292 48.5347 35.0572 48.8067C34.7852 49.0627 34.4252 49.1907 33.9772 49.1907H27.5452ZM43.2395 49.5027C42.2955 49.5027 41.4155 49.3747 40.5995 49.1187C39.7995 48.8467 39.0955 48.4467 38.4875 47.9187C37.8955 47.3907 37.4235 46.7267 37.0715 45.9267C36.7355 45.1267 36.5675 44.1907 36.5675 43.1187C36.5675 42.0627 36.7355 41.1587 37.0715 40.4067C37.4235 39.6387 37.8795 39.0147 38.4395 38.5347C38.9995 38.0387 39.6395 37.6787 40.3595 37.4547C41.0795 37.2147 41.8155 37.0947 42.5675 37.0947C43.4155 37.0947 44.1835 37.2227 44.8715 37.4787C45.5755 37.7347 46.1755 38.0867 46.6715 38.5347C47.1835 38.9827 47.5755 39.5187 47.8475 40.1427C48.1355 40.7667 48.2795 41.4467 48.2795 42.1827C48.2795 42.7267 48.1275 43.1427 47.8235 43.4307C47.5195 43.7187 47.0955 43.9027 46.5515 43.9827L40.6235 44.8707C40.7995 45.3987 41.1595 45.7987 41.7035 46.0707C42.2475 46.3267 42.8715 46.4547 43.5755 46.4547C44.2315 46.4547 44.8475 46.3747 45.4235 46.2147C46.0155 46.0387 46.4955 45.8387 46.8635 45.6147C47.1195 45.7747 47.3355 45.9987 47.5115 46.2867C47.6875 46.5747 47.7755 46.8787 47.7755 47.1987C47.7755 47.9187 47.4395 48.4547 46.7675 48.8067C46.2555 49.0787 45.6795 49.2627 45.0395 49.3587C44.3995 49.4547 43.7995 49.5027 43.2395 49.5027ZM42.5675 40.0707C42.1835 40.0707 41.8475 40.1347 41.5595 40.2627C41.2875 40.3907 41.0635 40.5587 40.8875 40.7667C40.7115 40.9587 40.5755 41.1827 40.4795 41.4387C40.3995 41.6787 40.3515 41.9267 40.3355 42.1827L44.4395 41.5107C44.3915 41.1907 44.2155 40.8707 43.9115 40.5507C43.6075 40.2307 43.1595 40.0707 42.5675 40.0707ZM54.3234 49.0947C54.1634 49.1427 53.9074 49.1907 53.5554 49.2387C53.2194 49.2867 52.8674 49.3107 52.4994 49.3107C52.1474 49.3107 51.8274 49.2867 51.5394 49.2387C51.2674 49.1907 51.0354 49.0947 50.8434 48.9507C50.6514 48.8067 50.4994 48.6147 50.3874 48.3747C50.2914 48.1187 50.2434 47.7907 50.2434 47.3907V40.1907C50.2434 39.8227 50.3074 39.5107 50.4354 39.2547C50.5794 38.9827 50.7794 38.7427 51.0354 38.5347C51.2914 38.3267 51.6034 38.1427 51.9714 37.9827C52.3554 37.8067 52.7634 37.6547 53.1954 37.5267C53.6274 37.3987 54.0754 37.3027 54.5394 37.2387C55.0034 37.1587 55.4674 37.1187 55.9314 37.1187C56.6994 37.1187 57.3074 37.2707 57.7554 37.5747C58.2034 37.8627 58.4274 38.3427 58.4274 39.0147C58.4274 39.2387 58.3954 39.4627 58.3314 39.6867C58.2674 39.8947 58.1874 40.0867 58.0914 40.2627C57.7554 40.2627 57.4114 40.2787 57.0594 40.3107C56.7074 40.3427 56.3634 40.3907 56.0274 40.4547C55.6914 40.5187 55.3714 40.5907 55.0674 40.6707C54.7794 40.7347 54.5314 40.8147 54.3234 40.9107V49.0947ZM67.2682 41.7267C67.2682 41.2307 67.1242 40.8707 66.8362 40.6467C66.5642 40.4067 66.1882 40.2867 65.7082 40.2867C65.3882 40.2867 65.0682 40.3267 64.7482 40.4067C64.4442 40.4867 64.1802 40.6067 63.9562 40.7667V49.0947C63.7962 49.1427 63.5402 49.1907 63.1882 49.2387C62.8522 49.2867 62.5002 49.3107 62.1322 49.3107C61.7802 49.3107 61.4602 49.2867 61.1722 49.2387C60.9002 49.1907 60.6682 49.0947 60.4762 48.9507C60.2842 48.8067 60.1322 48.6147 60.0202 48.3747C59.9242 48.1187 59.8762 47.7907 59.8762 47.3907V40.1907C59.8762 39.7587 59.9642 39.4067 60.1402 39.1347C60.3322 38.8627 60.5882 38.6147 60.9082 38.3907C61.4522 38.0067 62.1322 37.6947 62.9482 37.4547C63.7802 37.2147 64.7002 37.0947 65.7082 37.0947C67.5162 37.0947 68.9082 37.4947 69.8842 38.2947C70.8602 39.0787 71.3482 40.1747 71.3482 41.5827V49.0947C71.1882 49.1427 70.9322 49.1907 70.5802 49.2387C70.2442 49.2867 69.8922 49.3107 69.5242 49.3107C69.1722 49.3107 68.8522 49.2867 68.5642 49.2387C68.2922 49.1907 68.0602 49.0947 67.8682 48.9507C67.6762 48.8067 67.5242 48.6147 67.4122 48.3747C67.3162 48.1187 67.2682 47.7907 67.2682 47.3907V41.7267ZM84.841 49.5027C83.897 49.5027 83.017 49.3747 82.201 49.1187C81.401 48.8467 80.697 48.4467 80.089 47.9187C79.497 47.3907 79.025 46.7267 78.673 45.9267C78.337 45.1267 78.169 44.1907 78.169 43.1187C78.169 42.0627 78.337 41.1587 78.673 40.4067C79.025 39.6387 79.481 39.0147 80.041 38.5347C80.601 38.0387 81.241 37.6787 81.961 37.4547C82.681 37.2147 83.417 37.0947 84.169 37.0947C85.017 37.0947 85.785 37.2227 86.473 37.4787C87.177 37.7347 87.777 38.0867 88.273 38.5347C88.785 38.9827 89.177 39.5187 89.449 40.1427C89.7371 40.7667 89.8811 41.4467 89.8811 42.1827C89.8811 42.7267 89.729 43.1427 89.425 43.4307C89.121 43.7187 88.697 43.9027 88.153 43.9827L82.225 44.8707C82.401 45.3987 82.761 45.7987 83.305 46.0707C83.849 46.3267 84.473 46.4547 85.177 46.4547C85.833 46.4547 86.449 46.3747 87.025 46.2147C87.617 46.0387 88.097 45.8387 88.465 45.6147C88.721 45.7747 88.937 45.9987 89.113 46.2867C89.289 46.5747 89.377 46.8787 89.377 47.1987C89.377 47.9187 89.041 48.4547 88.369 48.8067C87.857 49.0787 87.281 49.2627 86.641 49.3587C86.001 49.4547 85.401 49.5027 84.841 49.5027ZM84.169 40.0707C83.785 40.0707 83.449 40.1347 83.161 40.2627C82.889 40.3907 82.665 40.5587 82.489 40.7667C82.313 40.9587 82.177 41.1827 82.081 41.4387C82.001 41.6787 81.953 41.9267 81.937 42.1827L86.041 41.5107C85.993 41.1907 85.817 40.8707 85.513 40.5507C85.209 40.2307 84.761 40.0707 84.169 40.0707ZM99.5512 48.8067C99.3272 48.9827 98.9992 49.1267 98.5672 49.2387C98.1352 49.3507 97.6472 49.4067 97.1032 49.4067C96.4792 49.4067 95.9352 49.3267 95.4712 49.1667C95.0232 49.0067 94.7112 48.7507 94.5352 48.3987C94.3912 48.1267 94.2152 47.7507 94.0072 47.2707C93.8152 46.7747 93.6072 46.2307 93.3832 45.6387C93.1592 45.0307 92.9272 44.3827 92.6872 43.6947C92.4472 43.0067 92.2152 42.3267 91.9912 41.6547C91.7832 40.9827 91.5912 40.3347 91.4152 39.7107C91.2392 39.0867 91.0952 38.5347 90.9832 38.0547C91.2072 37.8307 91.5032 37.6387 91.8712 37.4787C92.2552 37.3027 92.6712 37.2147 93.1192 37.2147C93.6792 37.2147 94.1352 37.3347 94.4872 37.5747C94.8552 37.7987 95.1272 38.2307 95.3032 38.8707L96.2392 42.5427C96.4152 43.2627 96.5832 43.9187 96.7432 44.5107C96.9032 45.0867 97.0232 45.5347 97.1032 45.8547H97.2232C97.5272 44.6707 97.8472 43.3587 98.1832 41.9187C98.5192 40.4787 98.8232 39.0627 99.0952 37.6707C99.3672 37.5267 99.6712 37.4147 100.007 37.3347C100.359 37.2547 100.695 37.2147 101.015 37.2147C101.575 37.2147 102.047 37.3347 102.431 37.5747C102.815 37.8147 103.007 38.2307 103.007 38.8227C103.007 39.0787 102.943 39.4547 102.815 39.9507C102.703 40.4307 102.551 40.9827 102.359 41.6067C102.183 42.2147 101.967 42.8627 101.711 43.5507C101.471 44.2387 101.223 44.9107 100.967 45.5667C100.711 46.2227 100.455 46.8387 100.199 47.4147C99.9592 47.9747 99.7432 48.4387 99.5512 48.8067ZM110.88 49.5027C109.936 49.5027 109.056 49.3747 108.24 49.1187C107.44 48.8467 106.736 48.4467 106.128 47.9187C105.536 47.3907 105.064 46.7267 104.712 45.9267C104.376 45.1267 104.208 44.1907 104.208 43.1187C104.208 42.0627 104.376 41.1587 104.712 40.4067C105.064 39.6387 105.52 39.0147 106.08 38.5347C106.64 38.0387 107.28 37.6787 108 37.4547C108.72 37.2147 109.456 37.0947 110.208 37.0947C111.056 37.0947 111.824 37.2227 112.512 37.4787C113.216 37.7347 113.816 38.0867 114.312 38.5347C114.824 38.9827 115.216 39.5187 115.488 40.1427C115.776 40.7667 115.92 41.4467 115.92 42.1827C115.92 42.7267 115.768 43.1427 115.464 43.4307C115.16 43.7187 114.736 43.9027 114.192 43.9827L108.264 44.8707C108.44 45.3987 108.8 45.7987 109.344 46.0707C109.888 46.3267 110.512 46.4547 111.216 46.4547C111.872 46.4547 112.488 46.3747 113.064 46.2147C113.656 46.0387 114.136 45.8387 114.504 45.6147C114.76 45.7747 114.976 45.9987 115.152 46.2867C115.328 46.5747 115.416 46.8787 115.416 47.1987C115.416 47.9187 115.08 48.4547 114.408 48.8067C113.896 49.0787 113.32 49.2627 112.68 49.3587C112.04 49.4547 111.44 49.5027 110.88 49.5027ZM110.208 40.0707C109.824 40.0707 109.488 40.1347 109.2 40.2627C108.928 40.3907 108.704 40.5587 108.528 40.7667C108.352 40.9587 108.216 41.1827 108.12 41.4387C108.04 41.6787 107.992 41.9267 107.976 42.1827L112.08 41.5107C112.032 41.1907 111.856 40.8707 111.552 40.5507C111.248 40.2307 110.8 40.0707 110.208 40.0707ZM125.276 41.7267C125.276 41.2307 125.132 40.8707 124.844 40.6467C124.572 40.4067 124.196 40.2867 123.716 40.2867C123.396 40.2867 123.076 40.3267 122.756 40.4067C122.452 40.4867 122.188 40.6067 121.964 40.7667V49.0947C121.804 49.1427 121.548 49.1907 121.196 49.2387C120.86 49.2867 120.508 49.3107 120.14 49.3107C119.788 49.3107 119.468 49.2867 119.18 49.2387C118.908 49.1907 118.676 49.0947 118.484 48.9507C118.292 48.8067 118.14 48.6147 118.028 48.3747C117.932 48.1187 117.884 47.7907 117.884 47.3907V40.1907C117.884 39.7587 117.972 39.4067 118.148 39.1347C118.34 38.8627 118.596 38.6147 118.916 38.3907C119.46 38.0067 120.14 37.6947 120.956 37.4547C121.788 37.2147 122.708 37.0947 123.716 37.0947C125.524 37.0947 126.916 37.4947 127.892 38.2947C128.868 39.0787 129.356 40.1747 129.356 41.5827V49.0947C129.196 49.1427 128.94 49.1907 128.588 49.2387C128.252 49.2867 127.9 49.3107 127.532 49.3107C127.18 49.3107 126.86 49.2867 126.572 49.2387C126.3 49.1907 126.068 49.0947 125.876 48.9507C125.684 48.8067 125.532 48.6147 125.42 48.3747C125.324 48.1187 125.276 47.7907 125.276 47.3907V41.7267ZM142.273 37.0947C142.929 37.0947 143.569 37.1907 144.193 37.3827C144.833 37.5587 145.385 37.8307 145.849 38.1987C146.329 37.8787 146.865 37.6147 147.457 37.4067C148.065 37.1987 148.793 37.0947 149.641 37.0947C150.249 37.0947 150.841 37.1747 151.417 37.3347C152.009 37.4947 152.529 37.7507 152.977 38.1027C153.441 38.4387 153.809 38.8947 154.081 39.4707C154.353 40.0307 154.489 40.7187 154.489 41.5347V49.0947C154.329 49.1427 154.073 49.1907 153.721 49.2387C153.385 49.2867 153.033 49.3107 152.665 49.3107C152.313 49.3107 151.993 49.2867 151.705 49.2387C151.433 49.1907 151.201 49.0947 151.009 48.9507C150.817 48.8067 150.665 48.6147 150.553 48.3747C150.457 48.1187 150.409 47.7907 150.409 47.3907V41.6547C150.409 41.1747 150.273 40.8307 150.001 40.6227C149.729 40.3987 149.361 40.2867 148.897 40.2867C148.673 40.2867 148.433 40.3427 148.177 40.4547C147.921 40.5507 147.729 40.6547 147.601 40.7667C147.617 40.8307 147.625 40.8947 147.625 40.9587C147.625 41.0067 147.625 41.0547 147.625 41.1027V49.0947C147.449 49.1427 147.185 49.1907 146.833 49.2387C146.497 49.2867 146.153 49.3107 145.801 49.3107C145.449 49.3107 145.129 49.2867 144.841 49.2387C144.569 49.1907 144.337 49.0947 144.145 48.9507C143.953 48.8067 143.801 48.6147 143.689 48.3747C143.593 48.1187 143.545 47.7907 143.545 47.3907V41.6547C143.545 41.1747 143.393 40.8307 143.089 40.6227C142.801 40.3987 142.449 40.2867 142.033 40.2867C141.745 40.2867 141.497 40.3347 141.289 40.4307C141.081 40.5107 140.905 40.5907 140.761 40.6707V49.0947C140.601 49.1427 140.345 49.1907 139.993 49.2387C139.657 49.2867 139.305 49.3107 138.937 49.3107C138.585 49.3107 138.265 49.2867 137.977 49.2387C137.705 49.1907 137.473 49.0947 137.281 48.9507C137.089 48.8067 136.937 48.6147 136.825 48.3747C136.729 48.1187 136.681 47.7907 136.681 47.3907V40.1427C136.681 39.7107 136.769 39.3667 136.945 39.1107C137.137 38.8547 137.393 38.6147 137.713 38.3907C138.257 38.0067 138.929 37.6947 139.729 37.4547C140.545 37.2147 141.393 37.0947 142.273 37.0947ZM169.05 43.2867C169.05 44.2787 168.898 45.1667 168.594 45.9507C168.29 46.7187 167.858 47.3667 167.298 47.8947C166.754 48.4227 166.098 48.8227 165.33 49.0947C164.562 49.3667 163.706 49.5027 162.762 49.5027C161.818 49.5027 160.962 49.3587 160.194 49.0707C159.426 48.7827 158.762 48.3747 158.202 47.8467C157.658 47.3027 157.234 46.6467 156.93 45.8787C156.626 45.1107 156.474 44.2467 156.474 43.2867C156.474 42.3427 156.626 41.4867 156.93 40.7187C157.234 39.9507 157.658 39.3027 158.202 38.7747C158.762 38.2307 159.426 37.8147 160.194 37.5267C160.962 37.2387 161.818 37.0947 162.762 37.0947C163.706 37.0947 164.562 37.2467 165.33 37.5507C166.098 37.8387 166.754 38.2547 167.298 38.7987C167.858 39.3267 168.29 39.9747 168.594 40.7427C168.898 41.5107 169.05 42.3587 169.05 43.2867ZM160.65 43.2867C160.65 44.2627 160.834 45.0147 161.202 45.5427C161.586 46.0547 162.114 46.3107 162.786 46.3107C163.458 46.3107 163.97 46.0467 164.322 45.5187C164.69 44.9907 164.874 44.2467 164.874 43.2867C164.874 42.3267 164.69 41.5907 164.322 41.0787C163.954 40.5507 163.434 40.2867 162.762 40.2867C162.09 40.2867 161.57 40.5507 161.202 41.0787C160.834 41.5907 160.65 42.3267 160.65 43.2867ZM175.12 49.0947C174.96 49.1427 174.704 49.1907 174.352 49.2387C174.016 49.2867 173.664 49.3107 173.296 49.3107C172.944 49.3107 172.624 49.2867 172.336 49.2387C172.064 49.1907 171.832 49.0947 171.64 48.9507C171.448 48.8067 171.296 48.6147 171.184 48.3747C171.088 48.1187 171.04 47.7907 171.04 47.3907V40.1907C171.04 39.8227 171.104 39.5107 171.232 39.2547C171.376 38.9827 171.576 38.7427 171.832 38.5347C172.088 38.3267 172.4 38.1427 172.768 37.9827C173.152 37.8067 173.56 37.6547 173.992 37.5267C174.424 37.3987 174.872 37.3027 175.336 37.2387C175.8 37.1587 176.264 37.1187 176.728 37.1187C177.496 37.1187 178.104 37.2707 178.552 37.5747C179 37.8627 179.224 38.3427 179.224 39.0147C179.224 39.2387 179.192 39.4627 179.128 39.6867C179.064 39.8947 178.984 40.0867 178.888 40.2627C178.552 40.2627 178.208 40.2787 177.856 40.3107C177.504 40.3427 177.16 40.3907 176.824 40.4547C176.488 40.5187 176.168 40.5907 175.864 40.6707C175.576 40.7347 175.328 40.8147 175.12 40.9107V49.0947ZM186.63 49.5027C185.686 49.5027 184.806 49.3747 183.99 49.1187C183.19 48.8467 182.486 48.4467 181.878 47.9187C181.286 47.3907 180.814 46.7267 180.462 45.9267C180.126 45.1267 179.958 44.1907 179.958 43.1187C179.958 42.0627 180.126 41.1587 180.462 40.4067C180.814 39.6387 181.27 39.0147 181.83 38.5347C182.39 38.0387 183.03 37.6787 183.75 37.4547C184.47 37.2147 185.206 37.0947 185.958 37.0947C186.806 37.0947 187.574 37.2227 188.262 37.4787C188.966 37.7347 189.566 38.0867 190.062 38.5347C190.574 38.9827 190.966 39.5187 191.238 40.1427C191.526 40.7667 191.67 41.4467 191.67 42.1827C191.67 42.7267 191.518 43.1427 191.214 43.4307C190.91 43.7187 190.486 43.9027 189.942 43.9827L184.014 44.8707C184.19 45.3987 184.55 45.7987 185.094 46.0707C185.638 46.3267 186.262 46.4547 186.966 46.4547C187.622 46.4547 188.238 46.3747 188.814 46.2147C189.406 46.0387 189.886 45.8387 190.254 45.6147C190.51 45.7747 190.726 45.9987 190.902 46.2867C191.078 46.5747 191.166 46.8787 191.166 47.1987C191.166 47.9187 190.83 48.4547 190.158 48.8067C189.646 49.0787 189.07 49.2627 188.43 49.3587C187.79 49.4547 187.19 49.5027 186.63 49.5027ZM185.958 40.0707C185.574 40.0707 185.238 40.1347 184.95 40.2627C184.678 40.3907 184.454 40.5587 184.278 40.7667C184.102 40.9587 183.966 41.1827 183.87 41.4387C183.79 41.6787 183.742 41.9267 183.726 42.1827L187.83 41.5107C187.782 41.1907 187.606 40.8707 187.302 40.5507C186.998 40.2307 186.55 40.0707 185.958 40.0707ZM198.074 35.1987C198.074 35.5667 198.066 36.1027 198.05 36.8067C198.034 37.4947 198.002 38.2467 197.954 39.0627C197.906 39.8627 197.842 40.6707 197.762 41.4867C197.682 42.2867 197.586 42.9827 197.474 43.5747C197.41 43.6227 197.314 43.6707 197.186 43.7187C197.058 43.7667 196.922 43.8067 196.778 43.8387C196.634 43.8707 196.49 43.8947 196.346 43.9107C196.202 43.9267 196.074 43.9347 195.962 43.9347C195.498 43.9347 195.106 43.8627 194.786 43.7187C194.482 43.5747 194.29 43.2947 194.21 42.8787C194.13 42.5107 194.058 41.9507 193.994 41.1987C193.946 40.4467 193.898 39.6307 193.85 38.7507C193.802 37.8707 193.762 36.9987 193.73 36.1347C193.714 35.2707 193.706 34.5347 193.706 33.9267C194.026 33.7507 194.386 33.6147 194.786 33.5187C195.202 33.4067 195.61 33.3507 196.01 33.3507C196.666 33.3507 197.17 33.5027 197.522 33.8067C197.89 34.1107 198.074 34.5747 198.074 35.1987ZM193.658 47.2947C193.658 46.6387 193.858 46.1027 194.258 45.6867C194.674 45.2547 195.242 45.0387 195.962 45.0387C196.682 45.0387 197.242 45.2547 197.642 45.6867C198.058 46.1027 198.266 46.6387 198.266 47.2947C198.266 47.9507 198.058 48.4947 197.642 48.9267C197.242 49.3427 196.682 49.5507 195.962 49.5507C195.242 49.5507 194.674 49.3427 194.258 48.9267C193.858 48.4947 193.658 47.9507 193.658 47.2947Z" fill="black"/>
<path d="M50.5579 160.247H54.6013V161.777H48.6536V152.534H50.5579V160.247ZM58.74 161.904C57.7328 161.904 56.9119 161.595 56.2771 160.977C55.6466 160.359 55.3313 159.536 55.3313 158.508V158.33C55.3313 157.64 55.4646 157.024 55.7312 156.483C55.9978 155.937 56.3744 155.518 56.8611 155.226C57.352 154.93 57.9106 154.781 58.5369 154.781C59.4763 154.781 60.2148 155.078 60.7522 155.67C61.2939 156.263 61.5647 157.103 61.5647 158.19V158.939H57.1912C57.2504 159.388 57.4281 159.747 57.7244 160.018C58.0248 160.289 58.4036 160.425 58.8606 160.425C59.5673 160.425 60.1195 160.169 60.5173 159.656L61.4187 160.666C61.1436 161.055 60.7712 161.36 60.3015 161.58C59.8318 161.796 59.3113 161.904 58.74 161.904ZM58.5305 156.267C58.1666 156.267 57.8704 156.39 57.6418 156.635C57.4176 156.88 57.2737 157.232 57.2102 157.689H59.762V157.543C59.7535 157.136 59.6435 156.823 59.4319 156.603C59.2203 156.379 58.9198 156.267 58.5305 156.267ZM66.592 161.777C66.5074 161.612 66.446 161.406 66.408 161.161C65.9636 161.656 65.386 161.904 64.675 161.904C64.0022 161.904 63.4436 161.709 62.9993 161.32C62.5592 160.93 62.3391 160.439 62.3391 159.847C62.3391 159.119 62.6078 158.56 63.1453 158.171C63.6869 157.782 64.4677 157.585 65.4875 157.581H66.3318V157.187C66.3318 156.87 66.2493 156.616 66.0842 156.426C65.9234 156.235 65.6674 156.14 65.3162 156.14C65.0072 156.14 64.7639 156.214 64.5862 156.362C64.4127 156.51 64.3259 156.713 64.3259 156.971H62.4915C62.4915 156.574 62.6142 156.205 62.8596 155.867C63.1051 155.528 63.4521 155.264 63.9006 155.073C64.3492 154.879 64.8528 154.781 65.4114 154.781C66.2577 154.781 66.9285 154.995 67.4236 155.423C67.9229 155.846 68.1726 156.442 68.1726 157.213V160.19C68.1768 160.841 68.2678 161.334 68.4456 161.669V161.777H66.592ZM65.075 160.501C65.3458 160.501 65.5955 160.441 65.824 160.323C66.0525 160.2 66.2218 160.037 66.3318 159.834V158.654H65.6462C64.7279 158.654 64.2392 158.971 64.1799 159.606L64.1736 159.714C64.1736 159.942 64.254 160.13 64.4148 160.279C64.5756 160.427 64.7957 160.501 65.075 160.501ZM73.4412 156.629C73.1915 156.595 72.9714 156.578 72.781 156.578C72.087 156.578 71.6321 156.813 71.4163 157.282V161.777H69.5818V154.908H71.3147L71.3655 155.727C71.7336 155.097 72.2436 154.781 72.8953 154.781C73.0984 154.781 73.2888 154.809 73.4666 154.864L73.4412 156.629ZM76.0183 154.908L76.0754 155.702C76.5663 155.088 77.2244 154.781 78.0496 154.781C78.7774 154.781 79.3191 154.995 79.6746 155.423C80.03 155.85 80.212 156.489 80.2205 157.34V161.777H78.386V157.384C78.386 156.995 78.3014 156.713 78.1321 156.54C77.9628 156.362 77.6814 156.273 77.2878 156.273C76.7716 156.273 76.3844 156.493 76.1262 156.933V161.777H74.2917V154.908H76.0183ZM87.4631 152.534L89.8372 159.238L92.1985 152.534H94.6995V161.777H92.7888V159.25L92.9792 154.889L90.4846 161.777H89.177L86.6887 154.896L86.8792 159.25V161.777H84.9749V152.534H87.4631ZM95.9563 158.279C95.9563 157.598 96.0875 156.99 96.3499 156.457C96.6122 155.924 96.9889 155.511 97.4797 155.219C97.9749 154.927 98.5483 154.781 99.2 154.781C100.127 154.781 100.882 155.065 101.466 155.632C102.054 156.199 102.382 156.969 102.45 157.943L102.463 158.412C102.463 159.466 102.169 160.312 101.58 160.951C100.992 161.586 100.203 161.904 99.2126 161.904C98.2224 161.904 97.4311 161.586 96.8386 160.951C96.2504 160.317 95.9563 159.453 95.9563 158.362V158.279ZM97.7908 158.412C97.7908 159.064 97.9135 159.563 98.1589 159.91C98.4044 160.253 98.7556 160.425 99.2126 160.425C99.657 160.425 100.004 160.255 100.254 159.917C100.503 159.574 100.628 159.028 100.628 158.279C100.628 157.64 100.503 157.145 100.254 156.794C100.004 156.442 99.6528 156.267 99.2 156.267C98.7514 156.267 98.4044 156.442 98.1589 156.794C97.9135 157.141 97.7908 157.68 97.7908 158.412ZM107.452 156.629C107.202 156.595 106.982 156.578 106.792 156.578C106.098 156.578 105.643 156.813 105.427 157.282V161.777H103.593V154.908H105.325L105.376 155.727C105.744 155.097 106.254 154.781 106.906 154.781C107.109 154.781 107.3 154.809 107.477 154.864L107.452 156.629ZM111.375 161.904C110.368 161.904 109.547 161.595 108.912 160.977C108.281 160.359 107.966 159.536 107.966 158.508V158.33C107.966 157.64 108.099 157.024 108.366 156.483C108.633 155.937 109.009 155.518 109.496 155.226C109.987 154.93 110.545 154.781 111.172 154.781C112.111 154.781 112.85 155.078 113.387 155.67C113.929 156.263 114.199 157.103 114.199 158.19V158.939H109.826C109.885 159.388 110.063 159.747 110.359 160.018C110.66 160.289 111.038 160.425 111.495 160.425C112.202 160.425 112.754 160.169 113.152 159.656L114.053 160.666C113.778 161.055 113.406 161.36 112.936 161.58C112.467 161.796 111.946 161.904 111.375 161.904ZM111.165 156.267C110.801 156.267 110.505 156.39 110.277 156.635C110.052 156.88 109.908 157.232 109.845 157.689H112.397V157.543C112.388 157.136 112.278 156.823 112.067 156.603C111.855 156.379 111.555 156.267 111.165 156.267ZM115.342 160.875C115.342 160.583 115.439 160.346 115.634 160.164C115.833 159.982 116.08 159.891 116.377 159.891C116.677 159.891 116.925 159.982 117.119 160.164C117.318 160.346 117.418 160.583 117.418 160.875C117.418 161.163 117.32 161.398 117.126 161.58C116.931 161.758 116.681 161.846 116.377 161.846C116.076 161.846 115.829 161.758 115.634 161.58C115.439 161.398 115.342 161.163 115.342 160.875Z" fill="white"/>
<g clip-path="url(#clip0)">
<path d="M391.971 151.564L382.542 103.08C382.265 101.589 380.954 100.502 379.441 100.502H374.323L373.869 97.7215C373.642 96.3565 372.584 95.2948 371.222 95.0926C370.97 95.042 370.743 95.0168 370.491 94.9915C370.34 94.9662 370.163 94.9409 370.012 94.9409L368.802 94.764L369.054 93.5759C369.709 90.5425 369.18 87.4333 367.566 84.7791L367.264 84.2989L367.466 83.768C368.272 81.6699 368.121 79.3191 367.062 77.3474C366.003 75.3757 364.112 73.9601 361.919 73.4799L361.188 73.3282L361.062 72.5698C359.549 64.4809 352.49 58.5658 344.296 58.5152C344.22 58.5152 344.119 58.5152 344.044 58.5405C343.943 58.5405 343.842 58.5658 343.741 58.5658L343.086 58.5911L342.733 58.035C341.497 56.1138 339.506 54.8499 337.237 54.5466C334.968 54.2685 332.724 55.0016 331.06 56.5688L330.404 57.1755L329.648 56.6952C327.429 55.2544 324.858 54.496 322.236 54.496C317.975 54.5213 314.017 56.4677 311.395 59.855L310.916 60.4617L310.184 60.2342C307.361 59.4253 304.386 59.9055 301.991 61.5992C299.595 63.2928 298.108 65.947 297.931 68.8792L297.881 69.587L297.226 69.8651C294.351 71.0784 292.511 73.8843 292.486 76.9935C292.486 77.5243 292.561 78.0552 292.662 78.586L292.763 79.0663L292.486 79.4708C289.763 83.5911 289.057 88.672 290.544 93.3737L290.948 94.6629L289.612 94.8398C289.385 94.8651 289.133 94.8904 288.906 94.9409C288.578 94.9915 288.225 95.042 287.897 95.0673C286.536 95.2695 285.452 96.3312 285.225 97.6962L284.771 100.477H279.703C278.191 100.477 276.88 101.564 276.602 103.055L267.173 151.564C266.871 153.131 267.274 154.749 268.282 155.987C269.291 157.226 270.804 157.934 272.392 157.934H317.899L318.227 158.49C319.588 160.74 324.152 162.256 329.547 162.256C334.917 162.256 339.43 160.74 340.817 158.49L341.144 157.959H386.702C388.291 157.959 389.778 157.251 390.812 156.013C391.871 154.749 392.274 153.131 391.971 151.564ZM293.015 82.858L293.671 81.2908L294.856 82.5041C295.259 82.9338 295.738 83.2877 296.242 83.6164C296.721 83.8944 297.326 83.7427 297.629 83.2625C297.906 82.8075 297.78 82.2513 297.377 81.9227L297.301 81.8722C295.133 80.5577 294.074 77.9288 294.755 75.4768C295.436 73.0248 297.679 71.3059 300.201 71.3059H300.226C301.991 71.3059 303.68 72.1654 304.739 73.6062C304.94 73.8843 305.319 74.036 305.672 74.0107C306.024 73.9601 306.352 73.7326 306.478 73.404C306.63 73.0754 306.579 72.6962 306.352 72.3929C305.092 70.6993 303.15 69.6123 301.058 69.3848L299.797 69.2584L300.049 68.0198C300.806 64.5061 303.957 61.9278 307.537 61.9278H307.562H307.588C307.89 61.9531 308.193 61.9783 308.495 62.0289L309.882 62.2564L309.378 63.5709C309.226 63.9753 309.075 64.3798 308.974 64.7842C308.848 65.315 309.176 65.8459 309.705 65.9975C310.235 66.1239 310.789 65.8206 310.941 65.2898C311.218 64.2534 311.621 63.2675 312.176 62.307C314.269 58.768 318.126 56.5688 322.21 56.5436C324.479 56.5436 326.648 57.2261 328.539 58.4647L329.295 58.945L328.992 59.7791C328.715 60.5628 328.564 61.3969 328.564 62.2311C328.564 62.7872 329.018 63.2422 329.572 63.2422C330.127 63.2422 330.581 62.7872 330.581 62.2311C330.581 59.0966 333.127 56.5436 336.228 56.5436C339.354 56.5436 341.901 59.0966 341.901 62.2311C341.901 62.7872 342.355 63.2422 342.909 63.2422C343.464 63.2422 343.918 62.7872 343.918 62.2311C343.918 62.2058 343.918 62.1553 343.893 62.13C343.867 62.0289 343.867 61.9278 343.867 61.8014L343.792 60.5375L345.052 60.6133C351.658 61.0178 357.33 65.8206 358.818 72.2918L359.07 73.3535L358.036 73.6568C357.154 73.9096 356.347 74.314 355.616 74.8701C355.339 75.0976 355.162 75.4515 355.213 75.8054C355.263 76.1593 355.49 76.4879 355.818 76.6143C356.145 76.766 356.549 76.7154 356.826 76.4879C358.969 74.8954 361.969 75.0218 363.961 76.7913C365.953 78.5607 366.457 81.5183 365.146 83.8439C364.566 84.8803 363.684 85.6892 362.6 86.1947C362.196 86.3969 361.969 86.8772 362.07 87.3322C362.171 87.7872 362.575 88.1158 363.054 88.1411C363.18 88.1411 363.331 88.1158 363.482 88.04C363.961 87.8125 364.44 87.5092 364.869 87.1553L366.104 86.1694L366.634 87.6608C367.894 91.2251 367.113 95.1937 364.591 97.9996L364.516 98.0754C361.415 101.463 356.347 102.373 352.212 100.325L352.187 100.3C351.784 100.072 351.38 99.8449 351.002 99.5668L350.095 98.9096L350.75 97.9996C352.086 96.1037 352.288 93.6517 351.229 91.5789C351.078 91.2503 350.75 91.0481 350.372 91.0228C350.019 90.9976 349.666 91.1745 349.464 91.4778C349.263 91.7812 349.237 92.1856 349.414 92.489C350.372 94.4101 349.767 96.7862 348.002 97.9996C346.943 98.7074 345.683 98.9096 344.472 98.6062C343.262 98.3029 342.254 97.494 341.674 96.3818C341.497 96.0279 341.17 95.8257 340.817 95.8004C340.464 95.7751 340.111 95.952 339.909 96.2554C339.707 96.5587 339.682 96.9379 339.859 97.2665C340.943 99.4404 343.111 100.805 345.531 100.805H345.557C346.338 100.805 347.094 100.654 347.826 100.35L348.481 100.098L349.011 100.553C349.716 101.159 350.473 101.69 351.305 102.12C354.129 103.586 357.356 103.889 360.381 102.954L363.633 101.968L361.616 104.724C359.297 107.883 355.893 109.981 352.036 110.613C351.532 110.689 351.154 111.169 351.179 111.7C351.229 112.231 351.658 112.636 352.187 112.636C352.238 112.636 352.288 112.636 352.364 112.636C353.574 112.433 354.759 112.079 355.919 111.599L356.851 111.195L357.356 112.079C358.062 113.318 358.616 114.633 359.045 115.998C359.146 116.326 359.196 116.68 359.221 117.034C359.221 118.424 358.389 119.688 357.129 120.219L357.104 120.244C356.675 120.396 356.246 120.497 355.818 120.497C354.759 120.497 353.75 120.017 353.044 119.183C351.507 117.388 349.515 116.048 347.271 115.34C342.758 113.824 340.413 112.307 339.405 110.285L338.674 108.844L340.262 108.642C341.321 108.515 342.355 108.288 343.388 107.984C343.716 107.883 343.993 107.605 344.069 107.251C344.145 106.897 344.044 106.518 343.767 106.265C343.489 106.013 343.111 105.937 342.783 106.038C341.497 106.442 340.161 106.67 338.8 106.771C336.228 106.973 333.581 106.569 331.186 105.608C330.782 105.457 330.329 105.558 330.051 105.886C326.496 109.981 320.546 110.664 316.16 107.479C311.798 104.294 310.588 98.404 313.361 93.7529C313.563 93.4495 313.563 93.0451 313.386 92.7165C313.21 92.3878 312.882 92.1856 312.504 92.1856C312.151 92.1856 311.798 92.3626 311.621 92.6912C311.168 93.4748 310.789 94.3343 310.487 95.219L310.235 96.0532L309.352 96.0026C307.083 95.8762 305.268 94.0056 305.218 91.7053V91.6295C305.218 91.3767 305.117 91.0987 304.915 90.9217C304.739 90.7448 304.461 90.6437 304.209 90.6437C303.629 90.6437 303.176 91.1239 303.176 91.6801C303.176 94.9409 305.621 97.6457 308.848 97.9996L309.857 98.1007V99.1118C309.857 99.769 309.932 100.426 310.033 101.083L310.21 102.145L309.151 102.373C303.907 103.51 298.537 101.64 295.108 97.494C291.704 93.4495 290.897 87.7872 293.015 82.858ZM317.874 155.861H272.392C271.409 155.861 270.476 155.431 269.846 154.648C269.215 153.889 268.963 152.904 269.165 151.943L278.771 102.524H284.468L277.51 144.536C277.333 145.623 277.737 146.71 278.569 147.443C279.401 148.177 280.535 148.404 281.594 148.075C293.192 144.309 305.672 143.525 317.672 145.775L318.681 145.977L317.874 155.861ZM339.128 157.428C338.27 158.768 334.463 160.184 329.572 160.184C324.681 160.184 320.874 158.793 320.017 157.428L319.815 157.1L320.698 146.432L321.984 146.761C324.404 147.368 326.774 148.177 329.068 149.137L329.118 149.162C329.245 149.238 329.421 149.263 329.572 149.263C329.724 149.263 329.875 149.238 330.001 149.162L330.051 149.137C332.346 148.151 334.741 147.342 337.136 146.736L338.422 146.407L339.304 157.1L339.128 157.428ZM332.068 146.129L330.581 146.635V118.121C330.581 117.59 330.203 117.11 329.673 117.059C329.068 117.009 328.539 117.464 328.539 118.07V146.66L327.051 146.154C312.201 141.174 295.839 141.174 280.989 146.129C280.863 146.18 280.737 146.18 280.636 146.18C279.955 146.18 279.401 145.573 279.527 144.865L287.418 97.1907L288.225 97.0643C289.032 96.9379 289.889 96.8368 290.696 96.7357L292.007 96.5587L292.385 97.1907C296.116 103.156 303.201 106.038 310.008 104.37L310.865 104.167L311.269 104.951C313.059 108.338 316.361 110.74 320.118 111.397C323.874 112.029 327.807 110.866 330.606 108.237L331.085 107.782L331.715 107.959C333.102 108.364 334.514 108.616 335.951 108.717L336.758 108.768L336.959 109.552C337.892 113.065 340.565 115.214 346.565 117.236C348.456 117.818 350.145 118.955 351.431 120.472C352.515 121.761 354.103 122.519 355.767 122.519C356.498 122.519 357.204 122.368 357.86 122.09C359.877 121.23 361.188 119.233 361.188 117.034C361.188 116.453 361.087 115.896 360.911 115.34C360.457 113.874 359.826 112.484 359.095 111.144L358.591 110.259L359.423 109.653C362.852 107.176 365.247 103.535 366.129 99.3899L366.18 99.1118L366.356 98.8843C366.785 98.3787 367.163 97.8479 367.491 97.2918L367.869 96.6598L369.079 96.8115C369.634 96.8873 370.239 96.9632 370.819 97.0643L371.626 97.1907L379.517 144.84C379.643 145.674 378.836 146.382 378.029 146.104C370.592 143.626 362.801 142.363 355.011 142.363C347.296 142.413 339.506 143.652 332.068 146.129ZM389.274 154.673C388.643 155.431 387.711 155.886 386.727 155.886H341.271L340.464 145.977L341.472 145.775C353.473 143.5 365.978 144.309 377.576 148.101C378.609 148.429 379.744 148.177 380.601 147.443C381.433 146.71 381.836 145.623 381.66 144.536L374.701 102.55H380.424L390.03 151.968C390.156 152.929 389.904 153.915 389.274 154.673Z" fill="black"/>
<path d="M339.329 157.1L339.128 157.428C338.27 158.768 334.463 160.184 329.572 160.184C324.681 160.184 320.874 158.793 320.017 157.428L319.815 157.1L320.698 146.432L321.984 146.761C324.404 147.368 326.774 148.176 329.068 149.137L329.118 149.162C329.245 149.238 329.421 149.263 329.572 149.263C329.724 149.263 329.875 149.238 330.001 149.162L330.051 149.137C332.346 148.151 334.741 147.342 337.136 146.736L338.422 146.407L339.329 157.1Z" fill="black"/>
<path d="M343.464 81.5939C342.531 86.4473 338.623 90.239 333.783 91.0479L333.127 91.149L332.9 91.7557C331.514 95.4716 327.933 97.9488 323.975 97.9488H323.95C323.395 97.9488 322.942 97.4938 322.942 96.9377C322.942 96.3816 323.395 95.9266 323.95 95.9266C326.396 95.9266 328.69 94.7385 330.102 92.7415L331.11 91.326L329.421 90.9721C326.975 90.4412 324.807 89.2026 323.118 87.332C322.942 87.1298 322.866 86.9023 322.866 86.6495C322.866 86.3715 322.992 86.0934 323.194 85.8912C323.622 85.512 324.253 85.5373 324.631 85.967C327.984 89.5565 333.354 90.1632 337.438 87.4332C339.556 85.967 340.993 83.7678 341.472 81.2148C341.523 80.8609 341.775 80.5575 342.128 80.4311C342.481 80.3047 342.859 80.3806 343.136 80.6334C343.439 80.8356 343.565 81.2148 343.464 81.5939Z" fill="black"/>
<path d="M323.698 72.7718C323.698 73.3279 323.244 73.7829 322.69 73.7829C320.899 73.7829 319.21 74.4907 317.925 75.7546C316.639 77.0185 315.958 78.7374 315.958 80.5321C315.958 81.0882 315.504 81.5432 314.95 81.5432C314.672 81.5432 314.42 81.4421 314.244 81.2399C314.042 81.0377 313.941 80.7849 313.941 80.5321C313.941 75.6787 317.874 71.7606 322.715 71.7354C323.244 71.7354 323.698 72.1904 323.698 72.7718Z" fill="black"/>
<path d="M330.581 38.2421V40.3907C330.581 40.9468 330.127 41.4018 329.572 41.4018C329.018 41.4018 328.564 40.9468 328.564 40.3907V38.2421C328.564 37.686 329.018 37.231 329.572 37.231C330.127 37.231 330.581 37.686 330.581 38.2421Z" fill="black"/>
<path d="M367.113 53.8135L364.944 55.9874C364.692 56.2402 364.314 56.3666 363.961 56.2655C363.608 56.1644 363.331 55.8863 363.23 55.5324C363.129 55.1785 363.23 54.7994 363.507 54.5213L365.65 52.3727H365.676C365.877 52.1704 366.129 52.0693 366.407 52.0693C366.482 52.0693 366.583 52.0693 366.659 52.0946C367.012 52.1957 367.289 52.4738 367.39 52.8277C367.491 53.1563 367.39 53.5355 367.113 53.8135Z" fill="black"/>
<path d="M295.839 55.6334C295.688 56.0126 295.309 56.2654 294.906 56.2654C294.629 56.2654 294.377 56.1643 294.2 55.962L292.032 53.7881C291.754 53.5354 291.654 53.1562 291.754 52.8023C291.855 52.4484 292.133 52.1703 292.486 52.0692C292.561 52.0439 292.662 52.0439 292.738 52.0439C293.015 52.0439 293.267 52.1451 293.494 52.3726L295.637 54.5212C295.914 54.8245 295.99 55.2543 295.839 55.6334Z" fill="black"/>
<path d="M312.403 46.5586C312.302 46.8114 312.1 47.0136 311.848 47.1147C311.722 47.1653 311.596 47.1905 311.445 47.1905C311.041 47.1905 310.663 46.9378 310.512 46.5586L308.041 40.5424C307.89 40.2138 307.94 39.8093 308.167 39.506C308.369 39.2532 308.672 39.1016 308.974 39.1016C309.025 39.1016 309.075 39.1016 309.125 39.1016C309.478 39.1521 309.806 39.4049 309.932 39.7588L312.403 45.7497C312.504 46.0278 312.504 46.3058 312.403 46.5586Z" fill="black"/>
<path d="M351.103 40.5929L348.632 46.5838C348.557 46.7861 348.431 46.9377 348.254 47.0388C348.103 47.1399 347.901 47.2158 347.7 47.2158C347.573 47.2158 347.422 47.1905 347.321 47.1399C347.069 47.0388 346.868 46.8366 346.767 46.5838C346.666 46.3311 346.666 46.053 346.767 45.8002L349.237 39.8346C349.389 39.4301 349.792 39.2026 350.17 39.2026C350.296 39.2026 350.422 39.2279 350.548 39.2785C350.801 39.3796 351.002 39.5818 351.103 39.8346C351.204 40.0621 351.204 40.3401 351.103 40.5929Z" fill="black"/>
<path d="M380.273 69.511C380.223 69.8649 379.996 70.1936 379.643 70.3199L373.668 72.7972C373.542 72.8478 373.416 72.873 373.29 72.873C372.81 72.873 372.382 72.5191 372.281 72.0641C372.18 71.5838 372.432 71.1036 372.886 70.9266L378.861 68.4494C378.987 68.3988 379.113 68.3735 379.239 68.3735C379.466 68.3735 379.668 68.4494 379.87 68.5758C380.172 68.8033 380.324 69.1572 380.273 69.511Z" fill="black"/>
<path d="M286.788 72.241C286.586 72.7718 285.981 72.9993 285.452 72.7971L279.476 70.3198C279.224 70.2187 279.023 70.0165 278.922 69.7637C278.821 69.5109 278.821 69.2329 278.922 68.9801C279.023 68.7273 279.224 68.5251 279.476 68.424C279.602 68.3734 279.728 68.3481 279.854 68.3481C279.981 68.3481 280.132 68.3734 280.233 68.424L286.208 70.9012C286.46 71.0023 286.662 71.2046 286.763 71.4573C286.889 71.7101 286.889 71.9882 286.788 72.241Z" fill="black"/>
</g>
<defs>
<clipPath id="clip0">
<rect width="125" height="125" fill="white" transform="translate(267.072 37.231)"/>
</clipPath>
</defs>
</svg>
