<svg width="165" height="37" viewBox="0 0 165 37" fill="none" xmlns="http://www.w3.org/2000/svg">
<path d="M0.084 22.608C0.084 19.92 0.612 17.536 1.668 15.456C2.756 13.376 4.212 11.776 6.036 10.656C7.892 9.536 9.956 8.976 12.228 8.976C14.212 8.976 15.94 9.376 17.412 10.176C18.916 10.976 20.116 11.984 21.012 13.2V9.408H27.78V36H21.012V32.112C20.148 33.36 18.948 34.4 17.412 35.232C15.908 36.032 14.164 36.432 12.18 36.432C9.94 36.432 7.892 35.856 6.036 34.704C4.212 33.552 2.756 31.936 1.668 29.856C0.612 27.744 0.084 25.328 0.084 22.608ZM21.012 22.704C21.012 21.072 20.692 19.68 20.052 18.528C19.412 17.344 18.548 16.448 17.46 15.84C16.372 15.2 15.204 14.88 13.956 14.88C12.708 14.88 11.556 15.184 10.5 15.792C9.444 16.4 8.58 17.296 7.908 18.48C7.268 19.632 6.948 21.008 6.948 22.608C6.948 24.208 7.268 25.616 7.908 26.832C8.58 28.016 9.444 28.928 10.5 29.568C11.588 30.208 12.74 30.528 13.956 30.528C15.204 30.528 16.372 30.224 17.46 29.616C18.548 28.976 19.412 28.08 20.052 26.928C20.692 25.744 21.012 24.336 21.012 22.704ZM58.0633 22.128C58.0633 23.088 57.9993 23.952 57.8713 24.72H38.4313C38.5913 26.64 39.2633 28.144 40.4473 29.232C41.6313 30.32 43.0873 30.864 44.8153 30.864C47.3113 30.864 49.0873 29.792 50.1433 27.648H57.3913C56.6233 30.208 55.1513 32.32 52.9753 33.984C50.7993 35.616 48.1273 36.432 44.9593 36.432C42.3993 36.432 40.0953 35.872 38.0473 34.752C36.0313 33.6 34.4473 31.984 33.2953 29.904C32.1753 27.824 31.6152 25.424 31.6152 22.704C31.6152 19.952 32.1753 17.536 33.2953 15.456C34.4153 13.376 35.9833 11.776 37.9993 10.656C40.0153 9.536 42.3353 8.976 44.9593 8.976C47.4873 8.976 49.7433 9.52 51.7273 10.608C53.7433 11.696 55.2953 13.248 56.3833 15.264C57.5033 17.248 58.0633 19.536 58.0633 22.128ZM51.1033 20.208C51.0713 18.48 50.4473 17.104 49.2313 16.08C48.0153 15.024 46.5273 14.496 44.7673 14.496C43.1033 14.496 41.6953 15.008 40.5433 16.032C39.4233 17.024 38.7353 18.416 38.4793 20.208H51.1033ZM69.7923 14.928V27.792C69.7923 28.688 70.0003 29.344 70.4163 29.76C70.8643 30.144 71.6003 30.336 72.6243 30.336H75.7443V36H71.5203C65.8563 36 63.0243 33.248 63.0243 27.744V14.928H59.8563V9.408H63.0243V2.832H69.7923V9.408H75.7443V14.928H69.7923ZM94.5536 9.024C96.5696 9.024 98.3616 9.472 99.9296 10.368C101.498 11.232 102.714 12.528 103.578 14.256C104.474 15.952 104.922 18 104.922 20.4V36H98.2016V21.312C98.2016 19.2 97.6736 17.584 96.6176 16.464C95.5616 15.312 94.1216 14.736 92.2976 14.736C90.4416 14.736 88.9696 15.312 87.8816 16.464C86.8256 17.584 86.2976 19.2 86.2976 21.312V36H79.5776V0.48H86.2976V12.72C87.1616 11.568 88.3136 10.672 89.7536 10.032C91.1936 9.36 92.7936 9.024 94.5536 9.024ZM135.032 22.128C135.032 23.088 134.968 23.952 134.84 24.72H115.4C115.56 26.64 116.232 28.144 117.416 29.232C118.6 30.32 120.056 30.864 121.784 30.864C124.28 30.864 126.056 29.792 127.112 27.648H134.36C133.592 30.208 132.12 32.32 129.944 33.984C127.768 35.616 125.096 36.432 121.928 36.432C119.368 36.432 117.064 35.872 115.016 34.752C113 33.6 111.416 31.984 110.264 29.904C109.144 27.824 108.584 25.424 108.584 22.704C108.584 19.952 109.144 17.536 110.264 15.456C111.384 13.376 112.952 11.776 114.968 10.656C116.984 9.536 119.304 8.976 121.928 8.976C124.456 8.976 126.712 9.52 128.696 10.608C130.712 11.696 132.264 13.248 133.352 15.264C134.472 17.248 135.032 19.536 135.032 22.128ZM128.072 20.208C128.04 18.48 127.416 17.104 126.2 16.08C124.984 15.024 123.496 14.496 121.736 14.496C120.072 14.496 118.664 15.008 117.512 16.032C116.392 17.024 115.704 18.416 115.448 20.208H128.072ZM145.657 13.536C146.521 12.128 147.641 11.024 149.017 10.224C150.425 9.424 152.025 9.024 153.817 9.024V16.08H152.041C149.929 16.08 148.329 16.576 147.241 17.568C146.185 18.56 145.657 20.288 145.657 22.752V36H138.937V9.408H145.657V13.536Z" fill="#11142D"/>
<path d="M160.319 36.336C159.103 36.336 158.095 35.968 157.295 35.232C156.527 34.464 156.143 33.52 156.143 32.4C156.143 31.28 156.527 30.352 157.295 29.616C158.095 28.848 159.103 28.464 160.319 28.464C161.503 28.464 162.479 28.848 163.247 29.616C164.015 30.352 164.399 31.28 164.399 32.4C164.399 33.52 164.015 34.464 163.247 35.232C162.479 35.968 161.503 36.336 160.319 36.336Z" fill="#FF7C5D"/>
</svg>
