<svg width="33" height="33" viewBox="0 0 33 33" fill="none" xmlns="http://www.w3.org/2000/svg">
<path d="M31.6474 5.19461L27.2838 0.827284C26.1844 -0.273104 24.2717 -0.275217 23.168 0.829397L3.61972 20.5706C3.53306 20.658 3.47054 20.7654 3.43644 20.8833L0.527397 31.0738C0.454988 31.3276 0.525965 31.6012 0.712783 31.7882C0.851261 31.9268 1.03665 32.0015 1.22701 32.0015C1.29376 32.0015 1.36126 31.9922 1.42658 31.9737L11.6084 29.0621C11.7263 29.0281 11.8335 28.9655 11.9209 28.8787L31.6474 9.3117C32.1972 8.76154 32.4997 8.03077 32.4997 7.25315C32.4997 6.47554 32.1972 5.74476 31.6474 5.19461Z" fill="black"/>
<path d="M8.69446 22.7738L7.69137 20.7669C7.56776 20.5205 7.31637 20.3649 7.04078 20.3649H5.8761L19.9944 6.11963L22.6715 8.79672L8.69446 22.7738Z" fill="#FFCA28"/>
<path d="M11.7298 24.8053L9.7229 23.8022L23.6999 9.8252L26.377 12.5023L12.1318 26.6206V25.4559C12.1318 25.1803 11.9762 24.9289 11.7298 24.8053Z" fill="#FFCA28"/>
<path d="M24.1942 1.88204C24.7439 1.33229 25.7013 1.33229 26.251 1.88204L30.6147 6.24568C30.8895 6.52052 31.0408 6.88557 31.0408 7.27407C31.0408 7.66257 30.8895 8.02761 30.6168 8.30034L27.41 11.4785L21.0181 5.08666L24.1942 1.88204Z" fill="#D32F2F"/>
<path d="M8.17441 24.6554C8.10411 24.6202 7.88429 24.4004 7.84911 24.3301L6.59559 21.823H4.68438L3.06567 27.4894L5.09429 29.4163L10.6816 27.8202V25.909L8.17441 24.6554Z" fill="#F2F2F2"/>
<path d="M5.09422 29.4165L3.06568 27.4895L3.23327 26.9026L2.28595 30.2187L5.60204 29.2714L5.09422 29.4165Z" fill="black"/>
<path opacity="0.1" d="M10.6815 25.9091L8.17441 24.6555C8.10411 24.6204 8.06675 24.5479 8.0118 24.4929L2.28595 30.2188L10.6815 27.8203V25.9091Z" fill="black"/>
<path opacity="0.1" d="M28.4372 4.06738L24.2184 8.28614L27.4144 11.4821L30.6212 8.30393C30.8939 8.0312 31.0452 7.66616 31.0452 7.27766C31.0452 6.88916 30.8939 6.52411 30.6191 6.24927L28.4372 4.06738Z" fill="black"/>
<path opacity="0.1" d="M11.7341 24.8087L9.72723 23.8056L23.7042 9.82861L26.3813 12.5057L12.1361 26.624V25.4593C12.1361 25.1837 11.9805 24.9323 11.7341 24.8087Z" fill="black"/>
<path d="M31.6474 5.19461L27.2838 0.827284C26.1844 -0.273104 24.2717 -0.275217 23.168 0.829397L3.61972 20.5706C3.53306 20.658 3.47054 20.7654 3.43644 20.8833L0.527397 31.0738C0.454988 31.3276 0.525965 31.6012 0.712783 31.7882C0.851261 31.9268 1.03665 32.0015 1.22701 32.0015C1.29376 32.0015 1.36126 31.9922 1.42658 31.9737L11.6084 29.0621C11.7263 29.0281 11.8335 28.9655 11.9209 28.8787L31.6474 9.3117C32.1972 8.76154 32.4997 8.03077 32.4997 7.25315C32.4997 6.47554 32.1972 5.74476 31.6474 5.19461Z" fill="url(#paint0_linear)"/>
<defs>
<linearGradient id="paint0_linear" x1="7.09132" y1="13.0231" x2="26.0045" y2="21.8388" gradientUnits="userSpaceOnUse">
<stop stop-color="white" stop-opacity="0.2"/>
<stop offset="1" stop-color="white" stop-opacity="0"/>
</linearGradient>
</defs>
</svg>
